G04 Layer_Physical_Order=2*
G04 Layer_Color=16711680*
%FSLAX44Y44*%
%MOMM*%
G71*
G01*
G75*
%ADD12C,0.3048*%
%ADD15C,1.5000*%
%ADD16R,1.5000X1.5000*%
%ADD17R,1.3500X1.3500*%
%ADD18C,1.3500*%
%ADD19R,1.3500X1.3500*%
%ADD20R,1.5000X1.5000*%
%ADD21C,1.5240*%
%ADD22C,1.4000*%
%ADD23C,1.2700*%
D12*
X685800Y1392936D02*
Y1397000D01*
X711200Y1422400D01*
X685800Y1392936D02*
X689864D01*
X660400Y703580D02*
Y857250D01*
Y703580D02*
X668020Y695960D01*
X723900D01*
X647700Y869950D02*
X660400Y857250D01*
X647700Y869950D02*
Y895350D01*
X657352Y906018D02*
X702310Y861060D01*
X657352Y906018D02*
Y912048D01*
X651698Y917702D02*
X657352Y912048D01*
X645668Y917702D02*
X651698D01*
X609600Y953770D02*
X645668Y917702D01*
X622300Y956056D02*
X679196Y899160D01*
X1295400Y1117600D02*
X1333500Y1079500D01*
Y1002030D02*
Y1079500D01*
X1295400Y963930D02*
X1333500Y1002030D01*
X1295400Y1168400D02*
X1346200Y1117600D01*
Y990600D02*
Y1117600D01*
X1295400Y939800D02*
X1346200Y990600D01*
X1295400Y1219200D02*
X1358900Y1155700D01*
Y977900D02*
Y1155700D01*
X1295400Y914400D02*
X1358900Y977900D01*
X647700Y1206500D02*
X711200Y1270000D01*
X647700Y985266D02*
Y1206500D01*
Y985266D02*
X654050Y978916D01*
X635000Y1219200D02*
X711200Y1295400D01*
X635000Y990600D02*
Y1219200D01*
Y990600D02*
X660400Y965200D01*
X622300Y956056D02*
Y1276350D01*
X609600Y953770D02*
Y1277403D01*
X654050Y978916D02*
X665480D01*
X729136Y995524D02*
Y999976D01*
Y995524D02*
X736600Y988060D01*
X879348Y901700D02*
X1003300D01*
X866648Y914400D02*
X879348Y901700D01*
X787400Y914400D02*
X866648D01*
X736600Y937260D02*
X1170940D01*
X1295400Y812800D01*
X1155700Y884682D02*
Y899922D01*
X1306322Y801878D02*
X1320800Y787400D01*
X736600Y835660D02*
X1164844D01*
X1251204Y749300D01*
X1326134D01*
X1316736Y698500D02*
X1327150D01*
X730758Y848360D02*
X1209040D01*
X1295400Y762000D01*
X711200Y1524000D02*
X724662Y1537462D01*
X742188D01*
X679196Y899160D02*
X723900D01*
X736600Y886460D01*
Y861060D02*
X1214337D01*
X1278197Y797200D01*
X1285600D01*
X1295400Y787400D01*
X720344Y1507744D02*
X736600Y1524000D01*
X682752Y1507744D02*
X720344D01*
X1003300Y901700D02*
X1016000Y914400D01*
X702310Y861060D02*
X711200D01*
X723900Y695960D02*
X736600Y683260D01*
X1327150Y698500D02*
X1339850Y711200D01*
Y735584D01*
X1326134Y749300D02*
X1339850Y735584D01*
X660400Y1117600D02*
X678688Y1099312D01*
Y1058926D02*
Y1099312D01*
X1118870Y1118870D02*
X1206500D01*
X1066800Y1066800D02*
X1118870Y1118870D01*
X922020Y751840D02*
X998220D01*
X942340Y1397000D02*
X1018540D01*
X1308100Y723900D02*
X1320800Y711200D01*
X1292352Y723900D02*
X1308100D01*
X1277112Y739140D02*
X1292352Y723900D01*
X907796Y739140D02*
X1277112D01*
X939800Y1524000D02*
X1016000Y1447800D01*
X998220Y726440D02*
X1072896D01*
X895858Y635000D02*
X1295400D01*
X939800Y1066800D02*
X976630Y1029970D01*
X911606Y1544320D02*
X1198880D01*
X1295400Y1447800D01*
X726440Y1263636D02*
Y1305560D01*
X711200Y1320800D02*
X726440Y1305560D01*
X741680Y1259840D02*
Y1315720D01*
X711200Y1346200D02*
X741680Y1315720D01*
X747656Y1376052D02*
Y1531994D01*
X742188Y1537462D02*
X747656Y1531994D01*
X674744Y1515752D02*
X682752Y1507744D01*
X635000Y1543050D02*
X661379D01*
X674744Y1529685D01*
Y1515752D02*
Y1529685D01*
X1016000Y1447800D02*
X1018540D01*
X1295400Y1346200D02*
X1310640Y1361440D01*
Y1457960D01*
X1295400Y1473200D02*
X1310640Y1457960D01*
X1295400Y1295400D02*
X1310640Y1310640D01*
Y1330960D01*
X1295400Y1346200D02*
X1310640Y1330960D01*
X1280160Y1082040D02*
X1295400Y1066800D01*
X1280160Y1082040D02*
Y1178560D01*
X1295400Y1193800D01*
X711200Y734060D02*
X722630Y722630D01*
X706120Y721360D02*
X716280D01*
X723900Y713740D01*
Y703580D02*
Y713740D01*
Y703580D02*
X731520Y695960D01*
X834898D01*
X895858Y635000D01*
X722630Y722630D02*
X891286D01*
X907796Y739140D01*
X695960Y731520D02*
X706120Y721360D01*
X695960Y731520D02*
Y820420D01*
X711200Y835660D01*
X660400Y939800D02*
X675640Y955040D01*
Y968756D01*
X665480Y978916D02*
X675640Y968756D01*
X702176Y1000760D02*
X702678Y1000258D01*
X714638D01*
X722256Y992640D01*
Y983480D02*
Y992640D01*
X715780Y977004D02*
X722256Y983480D01*
X706620Y977004D02*
X715780D01*
X660400Y990600D02*
X660902Y990098D01*
X660400Y1016000D02*
X673162D01*
X693984Y995178D01*
X704082D01*
X711200Y988060D01*
X730878Y925456D02*
X1130166D01*
X1155700Y899922D01*
X722256Y934078D02*
Y948316D01*
X736600Y962660D01*
X1299980Y801744D02*
X1300114Y801878D01*
X1306322D01*
X1288676Y801744D02*
X1299980D01*
X1155700Y884682D02*
X1164082Y876300D01*
X1214120D01*
X1288676Y801744D01*
X1295400Y660400D02*
X1308100Y673100D01*
Y689864D01*
X1316736Y698500D01*
X896620Y764540D02*
X1092708D01*
X622300Y1276350D02*
X704850Y1358900D01*
X730504D01*
X747656Y1376052D01*
X609600Y1277403D02*
X696177Y1363980D01*
X703797Y1371600D01*
X711200D01*
X723900Y1005212D02*
X729136Y999976D01*
X723900Y1005212D02*
Y1127760D01*
X722256Y934078D02*
X730878Y925456D01*
X723900Y855218D02*
X730758Y848360D01*
X723900Y855218D02*
Y873760D01*
X736600Y886460D01*
X747776Y949960D02*
Y970788D01*
X660400Y990600D02*
X686308D01*
X1229360Y1227969D02*
X1229506Y1227823D01*
X1229360Y1227969D02*
Y1265185D01*
X1229506Y1265331D01*
Y1462894D01*
X1168400Y1524000D02*
X1229506Y1462894D01*
X843280Y1297940D02*
X942340Y1397000D01*
X843280Y1173480D02*
Y1297940D01*
Y1173480D02*
X873760Y1143000D01*
Y1021080D02*
Y1143000D01*
Y1021080D02*
X894080Y1000760D01*
X924560D01*
X939800Y985520D01*
X807720Y609600D02*
X858520D01*
X998220Y777240D02*
X1026160D01*
X894080Y762000D02*
X896620Y764540D01*
X858520Y762000D02*
X894080D01*
X1018540Y1422400D02*
X1031240Y1435100D01*
X1181100D01*
X1198880Y1452880D01*
X878332Y1511046D02*
X911606Y1544320D01*
X878332Y1433068D02*
Y1511046D01*
Y1433068D02*
X889000Y1422400D01*
X807720Y762000D02*
X848360Y802640D01*
X922020D01*
X889000Y1457960D02*
X899160Y1447800D01*
X942340D01*
X1041400D02*
X1046480Y1452880D01*
X1018540Y1447800D02*
X1041400D01*
X1173480Y690880D02*
X1216660Y647700D01*
X1332230D01*
X1344930Y660400D01*
Y864870D01*
X1295400Y914400D02*
X1344930Y864870D01*
X707644Y1486916D02*
X736600Y1457960D01*
X787400Y1552956D02*
X800100Y1540256D01*
Y1489456D02*
Y1540256D01*
Y1489456D02*
X877824Y1411732D01*
X899668D01*
X910336Y1422400D01*
X942340D01*
X846836Y749808D02*
X858520Y738124D01*
X846836Y749808D02*
Y768350D01*
X855726Y777240D01*
X922020D01*
X998220Y675640D02*
X1013460Y690880D01*
X1021080D01*
X1056640Y655320D01*
X1173480D01*
X1090000Y761832D02*
X1092708Y764540D01*
X1090000Y750000D02*
Y761832D01*
X925456Y1535056D02*
X979544D01*
X914400Y1524000D02*
X925456Y1535056D01*
X979544D02*
X990600Y1524000D01*
X1001656Y1535056D02*
X1055744D01*
X990600Y1524000D02*
X1001656Y1535056D01*
X1055744D02*
X1066800Y1524000D01*
X1077856Y1535056D01*
X1182744D02*
X1193800Y1524000D01*
X1077856Y1535056D02*
X1182744D01*
X690880Y1012056D02*
X702176Y1000760D01*
X690880Y1012056D02*
Y1228076D01*
X726440Y1263636D01*
X701040Y1150620D02*
X723900Y1127760D01*
X701040Y1150620D02*
Y1219200D01*
X741680Y1259840D01*
X1104900Y1155700D02*
X1112520Y1148080D01*
X1229506Y1210456D02*
Y1227823D01*
X1112520Y1148080D02*
X1153160D01*
X1213485Y1194435D02*
X1229506Y1210456D01*
X1199515Y1194435D02*
X1213485D01*
X1153160Y1148080D02*
X1199515Y1194435D01*
X741680Y976884D02*
X747776Y970788D01*
X700024Y976884D02*
X741680D01*
X609600Y1524000D02*
X646684Y1486916D01*
X707644D01*
X609600Y1524000D02*
Y1544320D01*
X619760Y1554480D01*
X785876D01*
X787400Y1552956D01*
X998220Y802640D02*
X1016000D01*
X1021080Y807720D01*
X1026160Y777240D02*
X1143000D01*
X1173480Y807720D01*
X693527Y990098D02*
X706620Y977004D01*
X683514Y1422400D02*
X711200D01*
X604520Y1501394D02*
X683514Y1422400D01*
X604520Y1501394D02*
Y1549400D01*
X614680Y1559560D01*
X800100D01*
X812800Y1546860D01*
Y1524000D02*
Y1546860D01*
X660902Y990098D02*
X693527D01*
X686308Y990600D02*
X700024Y976884D01*
D15*
X1158240Y614680D02*
D03*
X1132840D02*
D03*
X1168400Y889000D02*
D03*
X1193800D02*
D03*
X1295400Y1270000D02*
D03*
Y1295400D02*
D03*
Y1320800D02*
D03*
Y1346200D02*
D03*
Y1371600D02*
D03*
Y1397000D02*
D03*
Y1422400D02*
D03*
Y1447800D02*
D03*
Y1473200D02*
D03*
Y990600D02*
D03*
Y1016000D02*
D03*
Y1041400D02*
D03*
Y1066800D02*
D03*
Y1092200D02*
D03*
Y1117600D02*
D03*
Y1143000D02*
D03*
Y1168400D02*
D03*
Y1193800D02*
D03*
X711200Y632460D02*
D03*
X736600D02*
D03*
X711200Y657860D02*
D03*
X736600D02*
D03*
X711200Y683260D02*
D03*
X736600D02*
D03*
X711200Y708660D02*
D03*
X736600D02*
D03*
X711200Y734060D02*
D03*
X736600D02*
D03*
X711200Y759460D02*
D03*
X736600D02*
D03*
X711200Y784860D02*
D03*
X736600D02*
D03*
X711200Y810260D02*
D03*
X736600D02*
D03*
X711200Y835660D02*
D03*
X736600D02*
D03*
X711200Y861060D02*
D03*
X736600D02*
D03*
X711200Y886460D02*
D03*
X736600D02*
D03*
X711200Y911860D02*
D03*
X736600D02*
D03*
X711200Y937260D02*
D03*
X736600D02*
D03*
X711200Y962660D02*
D03*
X736600D02*
D03*
X711200Y988060D02*
D03*
X736600D02*
D03*
X711200Y1013460D02*
D03*
X736600D02*
D03*
X711200Y1038860D02*
D03*
X736600D02*
D03*
X711200Y1064260D02*
D03*
X736600D02*
D03*
X711200Y1089660D02*
D03*
X736600D02*
D03*
X711200Y1115060D02*
D03*
X635000Y635000D02*
D03*
X609600Y660400D02*
D03*
X635000D02*
D03*
X609600Y685800D02*
D03*
X635000D02*
D03*
X609600Y711200D02*
D03*
X635000D02*
D03*
X609600Y736600D02*
D03*
X635000D02*
D03*
X609600Y762000D02*
D03*
X635000D02*
D03*
X609600Y787400D02*
D03*
X635000D02*
D03*
X609600Y812800D02*
D03*
X635000D02*
D03*
X609600Y838200D02*
D03*
X635000D02*
D03*
X609600Y863600D02*
D03*
X635000D02*
D03*
X1320800Y635000D02*
D03*
X1295400Y660400D02*
D03*
X1320800D02*
D03*
X1295400Y685800D02*
D03*
X1320800D02*
D03*
X1295400Y711200D02*
D03*
X1320800D02*
D03*
X1295400Y736600D02*
D03*
X1320800D02*
D03*
X1295400Y762000D02*
D03*
X1320800D02*
D03*
X1295400Y787400D02*
D03*
X1320800D02*
D03*
X1295400Y812800D02*
D03*
X1320800D02*
D03*
X1295400Y838200D02*
D03*
X1320800D02*
D03*
X1295400Y863600D02*
D03*
X1320800D02*
D03*
X685800Y1524000D02*
D03*
X711200D02*
D03*
X736600D02*
D03*
X762000D02*
D03*
X787400D02*
D03*
X812800D02*
D03*
X838200D02*
D03*
X711200Y1295400D02*
D03*
Y1320800D02*
D03*
Y1346200D02*
D03*
Y1371600D02*
D03*
Y1397000D02*
D03*
Y1422400D02*
D03*
Y1447800D02*
D03*
X660400Y965200D02*
D03*
Y990600D02*
D03*
Y1016000D02*
D03*
Y1041400D02*
D03*
Y1066800D02*
D03*
Y1092200D02*
D03*
Y1117600D02*
D03*
X1193800Y1524000D02*
D03*
X1016000D02*
D03*
X939800D02*
D03*
X1092200D02*
D03*
Y1066800D02*
D03*
X939800D02*
D03*
X1016000D02*
D03*
Y889000D02*
D03*
Y914400D02*
D03*
X990600Y889000D02*
D03*
Y914400D02*
D03*
X965200Y889000D02*
D03*
Y914400D02*
D03*
X939800Y889000D02*
D03*
Y914400D02*
D03*
X914400Y889000D02*
D03*
X942340Y1447800D02*
D03*
Y1422400D02*
D03*
Y1397000D02*
D03*
Y1371600D02*
D03*
Y1346200D02*
D03*
Y1320800D02*
D03*
Y1295400D02*
D03*
X1018540Y1447800D02*
D03*
Y1422400D02*
D03*
Y1397000D02*
D03*
Y1371600D02*
D03*
Y1346200D02*
D03*
Y1320800D02*
D03*
X922020Y802640D02*
D03*
Y777240D02*
D03*
Y751840D02*
D03*
Y726440D02*
D03*
Y701040D02*
D03*
Y675640D02*
D03*
Y650240D02*
D03*
X998220Y802640D02*
D03*
Y777240D02*
D03*
Y751840D02*
D03*
Y726440D02*
D03*
Y701040D02*
D03*
Y675640D02*
D03*
D16*
X1143000Y889000D02*
D03*
X660400Y1524000D02*
D03*
X1168400D02*
D03*
X990600D02*
D03*
X914400D02*
D03*
X1066800D02*
D03*
Y1066800D02*
D03*
X914400D02*
D03*
X990600D02*
D03*
X914400Y914400D02*
D03*
X1018540Y1295400D02*
D03*
X998220Y650240D02*
D03*
D17*
X1256900Y1016000D02*
D03*
X1156100Y1092200D02*
D03*
D18*
X1206900Y1016000D02*
D03*
X1206100Y1092200D02*
D03*
X1219200Y1269600D02*
D03*
D19*
Y1219600D02*
D03*
D20*
X1295400Y1498600D02*
D03*
Y1219200D02*
D03*
X736600Y1115060D02*
D03*
X609600Y635000D02*
D03*
X1295400D02*
D03*
X711200Y1270000D02*
D03*
X660400Y939800D02*
D03*
D21*
X723900Y1166300D02*
D03*
X1213900Y586300D02*
D03*
X723900D02*
D03*
X1213900Y1166300D02*
D03*
D22*
X1021080Y690880D02*
D03*
X1173480D02*
D03*
Y655320D02*
D03*
X1021080D02*
D03*
X1026160Y777240D02*
D03*
X1178560D02*
D03*
X1173480Y807720D02*
D03*
X1021080D02*
D03*
X807720Y609600D02*
D03*
Y762000D02*
D03*
X858520Y609600D02*
D03*
Y762000D02*
D03*
X939800Y985520D02*
D03*
X787400D02*
D03*
X843280Y1021080D02*
D03*
Y1173480D02*
D03*
X1046480Y1391920D02*
D03*
X1198880D02*
D03*
X1046480Y1361440D02*
D03*
X1198880D02*
D03*
X1046480Y1422400D02*
D03*
X1198880D02*
D03*
X736600Y1457960D02*
D03*
X889000D02*
D03*
X736600Y1422400D02*
D03*
X889000D02*
D03*
X1198880Y1452880D02*
D03*
X1046480D02*
D03*
D23*
X685800Y1392936D02*
D03*
X1104900Y1155700D02*
D03*
X647700Y895350D02*
D03*
X787400Y914400D02*
D03*
X635000Y1543050D02*
D03*
X1206500Y1118870D02*
D03*
X1295400Y914400D02*
D03*
Y939800D02*
D03*
Y963930D02*
D03*
X678688Y1058926D02*
D03*
X1072896Y726440D02*
D03*
X976630Y1029970D02*
D03*
X747776Y949960D02*
D03*
X858520Y738124D02*
D03*
X1090000Y750000D02*
D03*
M02*
