G04 Layer_Color=128*
%FSLAX45Y45*%
%MOMM*%
%TF.FileFunction,Drillmap*%
%TF.Part,Single*%
G01*
G75*
%TA.AperFunction,NonConductor*%
%ADD68C,0.12700*%
D68*
X12509999Y11525001D02*
X12859999D01*
X12684999Y11350001D02*
Y11700001D01*
X13135004Y11525001D02*
X13435004D01*
X13285004Y11375001D02*
Y11675001D01*
X12834998Y11074999D02*
X13134998D01*
X12984998Y10924999D02*
Y11224999D01*
X11704998Y9146001D02*
X11794998D01*
X11749998Y9101001D02*
Y9191001D01*
X11704998Y9400001D02*
X11794998D01*
X11749998Y9355001D02*
Y9445001D01*
X11704998Y10000001D02*
X11794998D01*
X11749998Y9955001D02*
Y10045001D01*
X11704998Y9746001D02*
X11794998D01*
X11749998Y9701001D02*
Y9791001D01*
X13057500Y12238000D02*
X13142499D01*
X13099998Y12195500D02*
Y12280500D01*
X13057500Y13762000D02*
X13142499D01*
X13099998Y13719501D02*
Y13804500D01*
X9560001Y10624998D02*
X9640001D01*
X9600001Y10584998D02*
Y10664998D01*
X9560001Y11125002D02*
X9640001D01*
X9600001Y11085002D02*
Y11165002D01*
X5907501Y12861996D02*
X5992501D01*
X5950001Y12819496D02*
Y12904495D01*
X5907501Y11337996D02*
X5992501D01*
X5950001Y11295496D02*
Y11380496D01*
X6257503Y11337996D02*
X6342503D01*
X6300003Y11295496D02*
Y11380496D01*
X6257503Y12861996D02*
X6342503D01*
X6300003Y12819496D02*
Y12904495D01*
X6607499Y12862001D02*
X6692499D01*
X6649999Y12819501D02*
Y12904501D01*
X6607499Y11338001D02*
X6692499D01*
X6649999Y11295501D02*
Y11380501D01*
X7657500Y11387999D02*
X7742500D01*
X7700000Y11345499D02*
Y11430499D01*
X7657500Y12912000D02*
X7742500D01*
X7700000Y12869499D02*
Y12954498D01*
X12001501Y11662999D02*
X12276500D01*
X12139000Y11525499D02*
Y11800499D01*
X7101500Y5863001D02*
X7376500D01*
X7239000Y5725501D02*
Y6000501D01*
X12001501Y5871799D02*
X12276500D01*
X12139000Y5734299D02*
Y6009299D01*
X7101500Y11662999D02*
X7376500D01*
X7239000Y11525499D02*
Y11800499D01*
X9251400Y9144000D02*
X9341400D01*
X9296400Y9099000D02*
Y9189000D01*
X9251400Y8890000D02*
X9341400D01*
X9296400Y8845000D02*
Y8935000D01*
X9505400Y9144000D02*
X9595400D01*
X9550400Y9099000D02*
Y9189000D01*
X9505400Y8890000D02*
X9595400D01*
X9550400Y8845000D02*
Y8935000D01*
X9759400Y9144000D02*
X9849400D01*
X9804400Y9099000D02*
Y9189000D01*
X9759400Y8890000D02*
X9849400D01*
X9804400Y8845000D02*
Y8935000D01*
X10013400Y9144000D02*
X10103400D01*
X10058400Y9099000D02*
Y9189000D01*
X10013400Y8890000D02*
X10103400D01*
X10058400Y8845000D02*
Y8935000D01*
X10267400Y9144000D02*
X10357400D01*
X10312400Y9099000D02*
Y9189000D01*
X10267400Y8890000D02*
X10357400D01*
X10312400Y8845000D02*
Y8935000D01*
X12725897Y13184302D02*
X12815897D01*
X12770896Y13139302D02*
Y13229301D01*
X12471897Y13184302D02*
X12561896D01*
X12516896Y13139302D02*
Y13229301D01*
X12217897Y13184302D02*
X12307896D01*
X12262896Y13139302D02*
Y13229301D01*
X11963897Y13184302D02*
X12053896D01*
X12008896Y13139302D02*
Y13229301D01*
X11709897Y13184302D02*
X11799896D01*
X11754896Y13139302D02*
Y13229301D01*
X11455897Y13184302D02*
X11545896D01*
X11500896Y13139302D02*
Y13229301D01*
X11201897Y13184302D02*
X11291896D01*
X11246896Y13139302D02*
Y13229301D01*
X10947897Y13184302D02*
X11037896D01*
X10992896Y13139302D02*
Y13229301D01*
X10185897Y13184302D02*
X10275896D01*
X10230896Y13139302D02*
Y13229301D01*
X9931897Y13184302D02*
X10021896D01*
X9976896Y13139302D02*
Y13229301D01*
X9677897Y13184302D02*
X9767896D01*
X9722896Y13139302D02*
Y13229301D01*
X9423897Y13184302D02*
X9513896D01*
X9468896Y13139302D02*
Y13229301D01*
X9169897Y13184302D02*
X9259896D01*
X9214896Y13139302D02*
Y13229301D01*
X8915897Y13184302D02*
X9005896D01*
X8960896Y13139302D02*
Y13229301D01*
X8661897Y13184302D02*
X8751896D01*
X8706896Y13139302D02*
Y13229301D01*
X8407897Y13184302D02*
X8497896D01*
X8452896Y13139302D02*
Y13229301D01*
X7747497Y13184302D02*
X7837496D01*
X7792496Y13139302D02*
Y13229301D01*
X7493497Y13184302D02*
X7583496D01*
X7538496Y13139302D02*
Y13229301D01*
X7239497Y13184302D02*
X7329496D01*
X7284496Y13139302D02*
Y13229301D01*
X6985497Y13184302D02*
X7075496D01*
X7030496Y13139302D02*
Y13229301D01*
X6731497Y13184302D02*
X6821496D01*
X6776496Y13139302D02*
Y13229301D01*
X6477497Y13184302D02*
X6567496D01*
X6522496Y13139302D02*
Y13229301D01*
X6223497Y13184302D02*
X6313496D01*
X6268496Y13139302D02*
Y13229301D01*
X5969497Y13184302D02*
X6059496D01*
X6014496Y13139302D02*
Y13229301D01*
X13061400Y6350000D02*
X13151401D01*
X13106400Y6305000D02*
Y6395000D01*
X13315401Y6350000D02*
X13405400D01*
X13360400Y6305000D02*
Y6395000D01*
X13061400Y6604000D02*
X13151401D01*
X13106400Y6559000D02*
Y6649000D01*
X13315401Y6604000D02*
X13405400D01*
X13360400Y6559000D02*
Y6649000D01*
X13061400Y6858000D02*
X13151401D01*
X13106400Y6813000D02*
Y6903000D01*
X13315401Y6858000D02*
X13405400D01*
X13360400Y6813000D02*
Y6903000D01*
X13061400Y7112000D02*
X13151401D01*
X13106400Y7067000D02*
Y7157000D01*
X13315401Y7112000D02*
X13405400D01*
X13360400Y7067000D02*
Y7157000D01*
X13061400Y7366000D02*
X13151401D01*
X13106400Y7321000D02*
Y7411000D01*
X13315401Y7366000D02*
X13405400D01*
X13360400Y7321000D02*
Y7411000D01*
X13061400Y7620000D02*
X13151401D01*
X13106400Y7575000D02*
Y7665000D01*
X13315401Y7620000D02*
X13405400D01*
X13360400Y7575000D02*
Y7665000D01*
X13061400Y7874000D02*
X13151401D01*
X13106400Y7829000D02*
Y7919000D01*
X13315401Y7874000D02*
X13405400D01*
X13360400Y7829000D02*
Y7919000D01*
X13061400Y8128000D02*
X13151401D01*
X13106400Y8083000D02*
Y8173000D01*
X13315401Y8128000D02*
X13405400D01*
X13360400Y8083000D02*
Y8173000D01*
X13061400Y8382000D02*
X13151401D01*
X13106400Y8337000D02*
Y8427000D01*
X13315401Y8382000D02*
X13405400D01*
X13360400Y8337000D02*
Y8427000D01*
X13061400Y8636000D02*
X13151401D01*
X13106400Y8591000D02*
Y8681000D01*
X13315401Y8636000D02*
X13405400D01*
X13360400Y8591000D02*
Y8681000D01*
X6203400Y6350000D02*
X6293400D01*
X6248400Y6305000D02*
Y6395000D01*
X6457400Y6350000D02*
X6547400D01*
X6502400Y6305000D02*
Y6395000D01*
X6203400Y6604000D02*
X6293400D01*
X6248400Y6559000D02*
Y6649000D01*
X6457400Y6604000D02*
X6547400D01*
X6502400Y6559000D02*
Y6649000D01*
X6203400Y6858000D02*
X6293400D01*
X6248400Y6813000D02*
Y6903000D01*
X6457400Y6858000D02*
X6547400D01*
X6502400Y6813000D02*
Y6903000D01*
X6203400Y7112000D02*
X6293400D01*
X6248400Y7067000D02*
Y7157000D01*
X6457400Y7112000D02*
X6547400D01*
X6502400Y7067000D02*
Y7157000D01*
X6203400Y7366000D02*
X6293400D01*
X6248400Y7321000D02*
Y7411000D01*
X6457400Y7366000D02*
X6547400D01*
X6502400Y7321000D02*
Y7411000D01*
X6203400Y7620000D02*
X6293400D01*
X6248400Y7575000D02*
Y7665000D01*
X6457400Y7620000D02*
X6547400D01*
X6502400Y7575000D02*
Y7665000D01*
X6203400Y7874000D02*
X6293400D01*
X6248400Y7829000D02*
Y7919000D01*
X6457400Y7874000D02*
X6547400D01*
X6502400Y7829000D02*
Y7919000D01*
X6203400Y8128000D02*
X6293400D01*
X6248400Y8083000D02*
Y8173000D01*
X6457400Y8128000D02*
X6547400D01*
X6502400Y8083000D02*
Y8173000D01*
X6203400Y8382000D02*
X6293400D01*
X6248400Y8337000D02*
Y8427000D01*
X6457400Y8382000D02*
X6547400D01*
X6502400Y8337000D02*
Y8427000D01*
X6203400Y8636000D02*
X6293400D01*
X6248400Y8591000D02*
Y8681000D01*
X6457400Y8636000D02*
X6547400D01*
X6502400Y8591000D02*
Y8681000D01*
X7321000Y11150600D02*
X7411000D01*
X7366000Y11105600D02*
Y11195600D01*
X7067000Y11150600D02*
X7157000D01*
X7112000Y11105600D02*
Y11195600D01*
X7321000Y10896600D02*
X7411000D01*
X7366000Y10851600D02*
Y10941600D01*
X7067000Y10896600D02*
X7157000D01*
X7112000Y10851600D02*
Y10941600D01*
X7321000Y10642600D02*
X7411000D01*
X7366000Y10597600D02*
Y10687600D01*
X7067000Y10642600D02*
X7157000D01*
X7112000Y10597600D02*
Y10687600D01*
X7321000Y10388600D02*
X7411000D01*
X7366000Y10343600D02*
Y10433600D01*
X7067000Y10388600D02*
X7157000D01*
X7112000Y10343600D02*
Y10433600D01*
X7321000Y10134600D02*
X7411000D01*
X7366000Y10089600D02*
Y10179600D01*
X7067000Y10134600D02*
X7157000D01*
X7112000Y10089600D02*
Y10179600D01*
X7321000Y9880600D02*
X7411000D01*
X7366000Y9835600D02*
Y9925600D01*
X7067000Y9880600D02*
X7157000D01*
X7112000Y9835600D02*
Y9925600D01*
X7321000Y9626600D02*
X7411000D01*
X7366000Y9581600D02*
Y9671600D01*
X7067000Y9626600D02*
X7157000D01*
X7112000Y9581600D02*
Y9671600D01*
X7321000Y9372600D02*
X7411000D01*
X7366000Y9327600D02*
Y9417600D01*
X7067000Y9372600D02*
X7157000D01*
X7112000Y9327600D02*
Y9417600D01*
X7321000Y9118600D02*
X7411000D01*
X7366000Y9073600D02*
Y9163600D01*
X7067000Y9118600D02*
X7157000D01*
X7112000Y9073600D02*
Y9163600D01*
X7321000Y8864600D02*
X7411000D01*
X7366000Y8819600D02*
Y8909600D01*
X7067000Y8864600D02*
X7157000D01*
X7112000Y8819600D02*
Y8909600D01*
X7321000Y8610600D02*
X7411000D01*
X7366000Y8565600D02*
Y8655600D01*
X7067000Y8610600D02*
X7157000D01*
X7112000Y8565600D02*
Y8655600D01*
X7321000Y8356600D02*
X7411000D01*
X7366000Y8311600D02*
Y8401600D01*
X7067000Y8356600D02*
X7157000D01*
X7112000Y8311600D02*
Y8401600D01*
X7321000Y8102600D02*
X7411000D01*
X7366000Y8057600D02*
Y8147600D01*
X7067000Y8102600D02*
X7157000D01*
X7112000Y8057600D02*
Y8147600D01*
X7321000Y7848600D02*
X7411000D01*
X7366000Y7803600D02*
Y7893600D01*
X7067000Y7848600D02*
X7157000D01*
X7112000Y7803600D02*
Y7893600D01*
X7321000Y7594600D02*
X7411000D01*
X7366000Y7549600D02*
Y7639600D01*
X7067000Y7594600D02*
X7157000D01*
X7112000Y7549600D02*
Y7639600D01*
X7321000Y7340600D02*
X7411000D01*
X7366000Y7295600D02*
Y7385600D01*
X7067000Y7340600D02*
X7157000D01*
X7112000Y7295600D02*
Y7385600D01*
X7321000Y7086600D02*
X7411000D01*
X7366000Y7041600D02*
Y7131600D01*
X7067000Y7086600D02*
X7157000D01*
X7112000Y7041600D02*
Y7131600D01*
X7321000Y6832600D02*
X7411000D01*
X7366000Y6787600D02*
Y6877600D01*
X7067000Y6832600D02*
X7157000D01*
X7112000Y6787600D02*
Y6877600D01*
X7321000Y6578600D02*
X7411000D01*
X7366000Y6533600D02*
Y6623600D01*
X7067000Y6578600D02*
X7157000D01*
X7112000Y6533600D02*
Y6623600D01*
X7321000Y6324600D02*
X7411000D01*
X7366000Y6279600D02*
Y6369600D01*
X7067000Y6324600D02*
X7157000D01*
X7112000Y6279600D02*
Y6369600D01*
X10760004Y9800001D02*
X10840004D01*
X10800004Y9760001D02*
Y9840001D01*
X10260000Y9800001D02*
X10340000D01*
X10300000Y9760001D02*
Y9840001D01*
X9610000Y10249998D02*
X9690000D01*
X9650000Y10209998D02*
Y10289998D01*
X10110004Y10249998D02*
X10190004D01*
X10150004Y10209998D02*
Y10289998D01*
X11334999Y11625001D02*
X11414999D01*
X11374999Y11585001D02*
Y11665001D01*
X11835003Y11625001D02*
X11915003D01*
X11875003Y11585001D02*
Y11665001D01*
X8147003Y9649998D02*
X8237002D01*
X8192002Y9604998D02*
Y9694998D01*
X8401003Y9649998D02*
X8491002D01*
X8446002Y9604998D02*
Y9694998D01*
X8655003Y9649998D02*
X8745002D01*
X8700002Y9604998D02*
Y9694998D01*
X12569499Y12549998D02*
X12654499D01*
X12611999Y12507498D02*
Y12592498D01*
X11045499Y12549998D02*
X11130499D01*
X11087999Y12507498D02*
Y12592498D01*
X12569499Y12149999D02*
X12654499D01*
X12611999Y12107499D02*
Y12192499D01*
X11045499Y12149999D02*
X11130499D01*
X11087999Y12107499D02*
Y12192499D01*
X10257500Y12912000D02*
X10342500D01*
X10300000Y12869499D02*
Y12954498D01*
X10257500Y11387999D02*
X10342500D01*
X10300000Y11345499D02*
Y11430499D01*
X10657499Y12912000D02*
X10742499D01*
X10699999Y12869499D02*
Y12954498D01*
X10657499Y11387999D02*
X10742499D01*
X10699999Y11345499D02*
Y11430499D01*
X8657498Y11387999D02*
X8742498D01*
X8699998Y11345499D02*
Y11430499D01*
X8657498Y12912000D02*
X8742498D01*
X8699998Y12869499D02*
Y12954498D01*
X9807498Y11387999D02*
X9892498D01*
X9849998Y11345499D02*
Y11430499D01*
X9807498Y12912000D02*
X9892498D01*
X9849998Y12869499D02*
Y12954498D01*
X8207501Y12912000D02*
X8292501D01*
X8250001Y12869499D02*
Y12954498D01*
X8207501Y11387999D02*
X8292501D01*
X8250001Y11345499D02*
Y11430499D01*
X9407499Y12912000D02*
X9492499D01*
X9449999Y12869499D02*
Y12954498D01*
X9407499Y11387999D02*
X9492499D01*
X9449999Y11345499D02*
Y11430499D01*
X13368700Y12192000D02*
X13453700D01*
X13411200Y12149500D02*
Y12234500D01*
X13368700Y13716000D02*
X13453700D01*
X13411200Y13673500D02*
Y13758501D01*
X11267002Y10400000D02*
X11387002D01*
X11327002Y10340000D02*
Y10460000D01*
X12313000Y10400000D02*
X12433000D01*
X12373000Y10340000D02*
Y10460000D01*
X11002002Y11640000D02*
X11102002D01*
X11052002Y11590000D02*
Y11690000D01*
X11002002Y8520000D02*
X11102002D01*
X11052002Y8470000D02*
Y8570000D01*
X13231500Y14021501D02*
X13311501D01*
X13271500Y13981500D02*
Y14061501D01*
X13231500Y14275500D02*
X13311501D01*
X13271500Y14235501D02*
Y14315501D01*
X13233003Y15027000D02*
X13313004D01*
X13273003Y14987000D02*
Y15067000D01*
X13233003Y14773000D02*
X13313004D01*
X13273003Y14733000D02*
Y14813000D01*
X10914440Y11350000D02*
X10985560D01*
X10950000Y11314440D02*
Y11385560D01*
X10564440Y8650000D02*
X10635560D01*
X10600000Y8614440D02*
Y8685560D01*
X9464440Y12650000D02*
X9535560D01*
X9500000Y12614440D02*
Y12685560D01*
X10253980Y10129520D02*
X10325100D01*
X10289540Y10093960D02*
Y10165080D01*
X8994140Y11485880D02*
X9065260D01*
X9029700Y11450320D02*
Y11521440D01*
X10114940Y11140440D02*
X10186060D01*
X10150500Y11104880D02*
Y11176000D01*
X10614440Y11000000D02*
X10685560D01*
X10650000Y10964440D02*
Y11035560D01*
%TF.MD5,45074CDDB456B00413BDD4703135B71C*%
M02*
