G04 Layer_Color=32896*
%FSLAX44Y44*%
%MOMM*%
G71*
G01*
G75*
%ADD14C,0.2540*%
%ADD24C,0.2000*%
%ADD38C,0.2032*%
D14*
X1262385Y1221743D02*
Y1226822D01*
Y1224283D01*
X1275081D01*
X1277620Y1226822D01*
Y1229361D01*
X1275081Y1231900D01*
X1264924Y1216665D02*
X1262385Y1214126D01*
Y1209047D01*
X1264924Y1206508D01*
X1267463D01*
X1270003Y1209047D01*
X1272542Y1206508D01*
X1275081D01*
X1277620Y1209047D01*
Y1214126D01*
X1275081Y1216665D01*
X1272542D01*
X1270003Y1214126D01*
X1267463Y1216665D01*
X1264924D01*
X1270003Y1214126D02*
Y1209047D01*
X994407Y1036325D02*
X989328D01*
X991868D01*
Y1049021D01*
X989328Y1051560D01*
X986789D01*
X984250Y1049021D01*
X999485Y1051560D02*
X1004563D01*
X1002024D01*
Y1036325D01*
X999485Y1038864D01*
X1012181D02*
X1014720Y1036325D01*
X1019799D01*
X1022338Y1038864D01*
Y1049021D01*
X1019799Y1051560D01*
X1014720D01*
X1012181Y1049021D01*
Y1038864D01*
X920747Y1037595D02*
X915668D01*
X918207D01*
Y1050291D01*
X915668Y1052830D01*
X913129D01*
X910590Y1050291D01*
X925825Y1052830D02*
X930903D01*
X928364D01*
Y1037595D01*
X925825Y1040134D01*
X938521Y1052830D02*
X943599D01*
X941060D01*
Y1037595D01*
X938521Y1040134D01*
X1070607Y1040135D02*
X1065528D01*
X1068067D01*
Y1052831D01*
X1065528Y1055370D01*
X1062989D01*
X1060450Y1052831D01*
X1075685Y1055370D02*
X1080763D01*
X1078224D01*
Y1040135D01*
X1075685Y1042674D01*
X1098538Y1055370D02*
X1088381D01*
X1098538Y1045213D01*
Y1042674D01*
X1095999Y1040135D01*
X1090920D01*
X1088381Y1042674D01*
X1259845Y1506223D02*
Y1511302D01*
Y1508763D01*
X1272541D01*
X1275080Y1511302D01*
Y1513841D01*
X1272541Y1516380D01*
Y1501145D02*
X1275080Y1498606D01*
Y1493527D01*
X1272541Y1490988D01*
X1262384D01*
X1259845Y1493527D01*
Y1498606D01*
X1262384Y1501145D01*
X1264923D01*
X1267462Y1498606D01*
Y1490988D01*
X1070607Y1497335D02*
X1065528D01*
X1068067D01*
Y1510031D01*
X1065528Y1512570D01*
X1062989D01*
X1060450Y1510031D01*
X1075685Y1512570D02*
X1080763D01*
X1078224D01*
Y1497335D01*
X1075685Y1499874D01*
X1088381D02*
X1090920Y1497335D01*
X1095999D01*
X1098538Y1499874D01*
Y1502413D01*
X1095999Y1504953D01*
X1093459D01*
X1095999D01*
X1098538Y1507492D01*
Y1510031D01*
X1095999Y1512570D01*
X1090920D01*
X1088381Y1510031D01*
X919477Y1498605D02*
X914398D01*
X916937D01*
Y1511301D01*
X914398Y1513840D01*
X911859D01*
X909320Y1511301D01*
X924555Y1513840D02*
X929633D01*
X927094D01*
Y1498605D01*
X924555Y1501144D01*
X944868Y1513840D02*
Y1498605D01*
X937251Y1506223D01*
X947408D01*
X994407Y1496065D02*
X989328D01*
X991868D01*
Y1508761D01*
X989328Y1511300D01*
X986789D01*
X984250Y1508761D01*
X999485Y1511300D02*
X1004563D01*
X1002024D01*
Y1496065D01*
X999485Y1498604D01*
X1022338Y1496065D02*
X1012181D01*
Y1503683D01*
X1017259Y1501143D01*
X1019799D01*
X1022338Y1503683D01*
Y1508761D01*
X1019799Y1511300D01*
X1014720D01*
X1012181Y1508761D01*
X916943Y960115D02*
X922022D01*
X919482D01*
Y947419D01*
X922022Y944880D01*
X924561D01*
X927100Y947419D01*
X901708Y944880D02*
X911865D01*
X901708Y955037D01*
Y957576D01*
X904247Y960115D01*
X909326D01*
X911865Y957576D01*
X584195Y937257D02*
Y932178D01*
Y934717D01*
X571499D01*
X568960Y932178D01*
Y929639D01*
X571499Y927100D01*
X584195Y952492D02*
X581656Y947413D01*
X576577Y942335D01*
X571499D01*
X568960Y944874D01*
Y949953D01*
X571499Y952492D01*
X574038D01*
X576577Y949953D01*
Y942335D01*
X599435Y1269997D02*
Y1264918D01*
Y1267458D01*
X586739D01*
X584200Y1264918D01*
Y1262379D01*
X586739Y1259840D01*
X599435Y1275075D02*
Y1285232D01*
X596896D01*
X586739Y1275075D01*
X584200D01*
X1295403Y609595D02*
X1300482D01*
X1297943D01*
Y596899D01*
X1300482Y594360D01*
X1303021D01*
X1305560Y596899D01*
X1290325Y607056D02*
X1287786Y609595D01*
X1282707D01*
X1280168Y607056D01*
Y604517D01*
X1282707Y601978D01*
X1285247D01*
X1282707D01*
X1280168Y599438D01*
Y596899D01*
X1282707Y594360D01*
X1287786D01*
X1290325Y596899D01*
X655317Y1485905D02*
X650238D01*
X652777D01*
Y1498601D01*
X650238Y1501140D01*
X647699D01*
X645160Y1498601D01*
X670552Y1485905D02*
X660395D01*
Y1493522D01*
X665473Y1490983D01*
X668013D01*
X670552Y1493522D01*
Y1498601D01*
X668013Y1501140D01*
X662934D01*
X660395Y1498601D01*
X1198880Y1507485D02*
Y1497328D01*
X1193802Y1492250D01*
X1188723Y1497328D01*
Y1507485D01*
X1183645Y1492250D02*
X1178567D01*
X1181106D01*
Y1502407D01*
X1183645D01*
X1170949Y1492250D02*
Y1502407D01*
X1163332D01*
X1160792Y1499868D01*
Y1492250D01*
X571505Y637543D02*
Y642622D01*
Y640082D01*
X584201D01*
X586740Y642622D01*
Y645161D01*
X584201Y647700D01*
X586740Y624847D02*
X571505D01*
X579123Y632465D01*
Y622308D01*
D24*
X1308100Y1257300D02*
Y1492250D01*
Y1507066D02*
X1312333Y1511300D01*
X1308100Y1492250D02*
Y1511300D01*
X1320800Y1265767D02*
X1354667D01*
X1358900Y1270000D01*
X1354667Y1274233D02*
X1358900Y1270000D01*
X1320800Y1274233D02*
X1354667D01*
X1320800Y1291167D02*
X1354667D01*
X1358900Y1295400D01*
X1354667Y1299633D02*
X1358900Y1295400D01*
X1320800Y1299633D02*
X1354667D01*
X1320800Y1316567D02*
X1354667D01*
X1358900Y1320800D01*
X1354667Y1325033D02*
X1358900Y1320800D01*
X1320800Y1325033D02*
X1354667D01*
X1320800Y1341967D02*
X1354667D01*
X1358900Y1346200D01*
X1354667Y1350433D02*
X1358900Y1346200D01*
X1320800Y1350433D02*
X1354667D01*
X1320800Y1367367D02*
X1354667D01*
X1358900Y1371600D01*
X1354667Y1375833D02*
X1358900Y1371600D01*
X1320800Y1375833D02*
X1354667D01*
X1320800Y1392766D02*
X1354667D01*
X1358900Y1397000D01*
X1354667Y1401233D02*
X1358900Y1397000D01*
X1320800Y1401233D02*
X1354667D01*
X1320800Y1418166D02*
X1354667D01*
X1358900Y1422400D01*
X1354667Y1426633D02*
X1358900Y1422400D01*
X1320800Y1426633D02*
X1354667D01*
X1320800Y1443566D02*
X1354667D01*
X1358900Y1447800D01*
X1354667Y1452033D02*
X1358900Y1447800D01*
X1320800Y1452033D02*
X1354667D01*
X1320800Y1468966D02*
X1354667D01*
X1358900Y1473200D01*
X1354667Y1477433D02*
X1358900Y1473200D01*
X1320800Y1477433D02*
X1354667D01*
X1320800Y1494366D02*
X1354667D01*
X1358900Y1498600D01*
X1354667Y1502833D02*
X1358900Y1498600D01*
X1320800Y1502833D02*
X1354667D01*
X1308100Y1257300D02*
X1320800D01*
Y1511300D01*
X1308100D02*
X1320800D01*
X1308100Y977900D02*
Y1212850D01*
Y1227666D02*
X1312333Y1231900D01*
X1308100Y1212850D02*
Y1231900D01*
X1320800Y986367D02*
X1354667D01*
X1358900Y990600D01*
X1354667Y994833D02*
X1358900Y990600D01*
X1320800Y994833D02*
X1354667D01*
X1320800Y1011767D02*
X1354667D01*
X1358900Y1016000D01*
X1354667Y1020233D02*
X1358900Y1016000D01*
X1320800Y1020233D02*
X1354667D01*
X1320800Y1037167D02*
X1354667D01*
X1358900Y1041400D01*
X1354667Y1045633D02*
X1358900Y1041400D01*
X1320800Y1045633D02*
X1354667D01*
X1320800Y1062567D02*
X1354667D01*
X1358900Y1066800D01*
X1354667Y1071033D02*
X1358900Y1066800D01*
X1320800Y1071033D02*
X1354667D01*
X1320800Y1087967D02*
X1354667D01*
X1358900Y1092200D01*
X1354667Y1096433D02*
X1358900Y1092200D01*
X1320800Y1096433D02*
X1354667D01*
X1320800Y1113366D02*
X1354667D01*
X1358900Y1117600D01*
X1354667Y1121833D02*
X1358900Y1117600D01*
X1320800Y1121833D02*
X1354667D01*
X1320800Y1138766D02*
X1354667D01*
X1358900Y1143000D01*
X1354667Y1147233D02*
X1358900Y1143000D01*
X1320800Y1147233D02*
X1354667D01*
X1320800Y1164166D02*
X1354667D01*
X1358900Y1168400D01*
X1354667Y1172633D02*
X1358900Y1168400D01*
X1320800Y1172633D02*
X1354667D01*
X1320800Y1189566D02*
X1354667D01*
X1358900Y1193800D01*
X1354667Y1198033D02*
X1358900Y1193800D01*
X1320800Y1198033D02*
X1354667D01*
X1320800Y1214966D02*
X1354667D01*
X1358900Y1219200D01*
X1354667Y1223433D02*
X1358900Y1219200D01*
X1320800Y1223433D02*
X1354667D01*
X1308100Y977900D02*
X1320800D01*
Y1231900D01*
X1308100D02*
X1320800D01*
X596900Y876300D02*
X647700D01*
X596900Y622300D02*
Y641350D01*
Y622300D02*
X647700D01*
Y641350D01*
Y876300D01*
X596900Y641350D02*
Y876300D01*
X1282700D02*
X1333500D01*
X1282700Y622300D02*
Y641350D01*
Y622300D02*
X1333500D01*
Y641350D01*
Y876300D01*
X1282700Y641350D02*
Y876300D01*
X647700Y1536700D02*
Y1549400D01*
X850900D01*
Y1536700D02*
Y1549400D01*
X656167D02*
Y1583266D01*
X660400Y1587500D01*
X664633Y1583266D01*
Y1549400D02*
Y1583266D01*
X681567Y1549400D02*
Y1583266D01*
X685800Y1587500D01*
X690033Y1583266D01*
Y1549400D02*
Y1583266D01*
X706967Y1549400D02*
Y1583266D01*
X711200Y1587500D01*
X715433Y1583266D01*
Y1549400D02*
Y1583266D01*
X732367Y1549400D02*
Y1583266D01*
X736600Y1587500D01*
X740833Y1583266D01*
Y1549400D02*
Y1583266D01*
X757766Y1549400D02*
Y1583266D01*
X762000Y1587500D01*
X766233Y1583266D01*
Y1549400D02*
Y1583266D01*
X783166Y1549400D02*
Y1583266D01*
X787400Y1587500D01*
X791633Y1583266D01*
Y1549400D02*
Y1583266D01*
X808566Y1549400D02*
Y1583266D01*
X812800Y1587500D01*
X817033Y1583266D01*
Y1549400D02*
Y1583266D01*
X833966Y1549400D02*
Y1583266D01*
X838200Y1587500D01*
X842433Y1583266D01*
Y1549400D02*
Y1583266D01*
X647700Y1540933D02*
X651933Y1536700D01*
X647700D02*
X850900D01*
X685800Y1257300D02*
X698500D01*
X685800D02*
Y1460500D01*
X698500D01*
X651934Y1265767D02*
X685800D01*
X647700Y1270000D02*
X651934Y1265767D01*
X647700Y1270000D02*
X651934Y1274233D01*
X685800D01*
X651934Y1291167D02*
X685800D01*
X647700Y1295400D02*
X651934Y1291167D01*
X647700Y1295400D02*
X651934Y1299633D01*
X685800D01*
X651934Y1316567D02*
X685800D01*
X647700Y1320800D02*
X651934Y1316567D01*
X647700Y1320800D02*
X651934Y1325033D01*
X685800D01*
X651934Y1341967D02*
X685800D01*
X647700Y1346200D02*
X651934Y1341967D01*
X647700Y1346200D02*
X651934Y1350433D01*
X685800D01*
X651934Y1367366D02*
X685800D01*
X647700Y1371600D02*
X651934Y1367366D01*
X647700Y1371600D02*
X651934Y1375833D01*
X685800D01*
X651934Y1392766D02*
X685800D01*
X647700Y1397000D02*
X651934Y1392766D01*
X647700Y1397000D02*
X651934Y1401233D01*
X685800D01*
X651934Y1418166D02*
X685800D01*
X647700Y1422400D02*
X651934Y1418166D01*
X647700Y1422400D02*
X651934Y1426633D01*
X685800D01*
X651934Y1443566D02*
X685800D01*
X647700Y1447800D02*
X651934Y1443566D01*
X647700Y1447800D02*
X651934Y1452033D01*
X685800D01*
X694267Y1257300D02*
X698500Y1261533D01*
Y1257300D02*
Y1460500D01*
X635000Y927100D02*
X647700D01*
X635000D02*
Y1130300D01*
X647700D01*
X601134Y935567D02*
X635000D01*
X596900Y939800D02*
X601134Y935567D01*
X596900Y939800D02*
X601134Y944033D01*
X635000D01*
X601134Y960967D02*
X635000D01*
X596900Y965200D02*
X601134Y960967D01*
X596900Y965200D02*
X601134Y969433D01*
X635000D01*
X601134Y986367D02*
X635000D01*
X596900Y990600D02*
X601134Y986367D01*
X596900Y990600D02*
X601134Y994833D01*
X635000D01*
X601134Y1011767D02*
X635000D01*
X596900Y1016000D02*
X601134Y1011767D01*
X596900Y1016000D02*
X601134Y1020233D01*
X635000D01*
X601134Y1037166D02*
X635000D01*
X596900Y1041400D02*
X601134Y1037166D01*
X596900Y1041400D02*
X601134Y1045633D01*
X635000D01*
X601134Y1062566D02*
X635000D01*
X596900Y1066800D02*
X601134Y1062566D01*
X596900Y1066800D02*
X601134Y1071033D01*
X635000D01*
X601134Y1087966D02*
X635000D01*
X596900Y1092200D02*
X601134Y1087966D01*
X596900Y1092200D02*
X601134Y1096433D01*
X635000D01*
X601134Y1113366D02*
X635000D01*
X596900Y1117600D02*
X601134Y1113366D01*
X596900Y1117600D02*
X601134Y1121833D01*
X635000D01*
X643467Y927100D02*
X647700Y931333D01*
Y927100D02*
Y1130300D01*
X1155700Y1549400D02*
X1206500D01*
Y1536700D02*
Y1549400D01*
X1155700Y1536700D02*
Y1549400D01*
Y1536700D02*
X1206500D01*
X1164167Y1549400D02*
Y1583266D01*
X1168400Y1587500D01*
X1172634Y1583266D01*
X1172633Y1549400D02*
Y1583266D01*
X1189567Y1549400D02*
Y1583266D01*
X1193800Y1587500D01*
X1198033Y1583266D01*
Y1549400D02*
Y1583266D01*
X977900Y1549400D02*
X1028700D01*
Y1536700D02*
Y1549400D01*
X977900Y1536700D02*
Y1549400D01*
Y1536700D02*
X1028700D01*
X986367Y1549400D02*
Y1583266D01*
X990600Y1587500D01*
X994834Y1583266D01*
X994833Y1549400D02*
Y1583266D01*
X1011767Y1549400D02*
Y1583266D01*
X1016000Y1587500D01*
X1020233Y1583266D01*
Y1549400D02*
Y1583266D01*
X901700Y1549400D02*
X952500D01*
Y1536700D02*
Y1549400D01*
X901700Y1536700D02*
Y1549400D01*
Y1536700D02*
X952500D01*
X910167Y1549400D02*
Y1583266D01*
X914400Y1587500D01*
X918634Y1583266D01*
X918633Y1549400D02*
Y1583266D01*
X935567Y1549400D02*
Y1583266D01*
X939800Y1587500D01*
X944033Y1583266D01*
Y1549400D02*
Y1583266D01*
X1054100Y1549400D02*
X1104900D01*
Y1536700D02*
Y1549400D01*
X1054100Y1536700D02*
Y1549400D01*
Y1536700D02*
X1104900D01*
X1062567Y1549400D02*
Y1583266D01*
X1066800Y1587500D01*
X1071034Y1583266D01*
X1071033Y1549400D02*
Y1583266D01*
X1087967Y1549400D02*
Y1583266D01*
X1092200Y1587500D01*
X1096433Y1583266D01*
Y1549400D02*
Y1583266D01*
X1054100Y1092200D02*
X1104900D01*
Y1079500D02*
Y1092200D01*
X1054100Y1079500D02*
Y1092200D01*
Y1079500D02*
X1104900D01*
X1062567Y1092200D02*
Y1126066D01*
X1066800Y1130300D01*
X1071034Y1126066D01*
X1071033Y1092200D02*
Y1126066D01*
X1087967Y1092200D02*
Y1126066D01*
X1092200Y1130300D01*
X1096433Y1126066D01*
Y1092200D02*
Y1126066D01*
X901700Y1092200D02*
X952500D01*
Y1079500D02*
Y1092200D01*
X901700Y1079500D02*
Y1092200D01*
Y1079500D02*
X952500D01*
X910167Y1092200D02*
Y1126066D01*
X914400Y1130300D01*
X918634Y1126066D01*
X918633Y1092200D02*
Y1126066D01*
X935567Y1092200D02*
Y1126066D01*
X939800Y1130300D01*
X944033Y1126066D01*
Y1092200D02*
Y1126066D01*
X977900Y1092200D02*
X1028700D01*
Y1079500D02*
Y1092200D01*
X977900Y1079500D02*
Y1092200D01*
Y1079500D02*
X1028700D01*
X986367Y1092200D02*
Y1126066D01*
X990600Y1130300D01*
X994834Y1126066D01*
X994833Y1092200D02*
Y1126066D01*
X1011767Y1092200D02*
Y1126066D01*
X1016000Y1130300D01*
X1020233Y1126066D01*
Y1092200D02*
Y1126066D01*
X901700Y927100D02*
X1028700D01*
X901700Y876300D02*
X1028700D01*
X901700D02*
Y927100D01*
X1028700Y876300D02*
Y927100D01*
D38*
X1275080Y1515536D02*
Y1524000D01*
X1266616Y1515536D01*
X1264500D01*
X1262384Y1517652D01*
Y1521884D01*
X1264500Y1524000D01*
X1300480Y1518920D02*
Y1514688D01*
Y1516804D01*
X1287784D01*
X1289900Y1518920D01*
X1298364Y1381760D02*
X1300480Y1379644D01*
Y1375412D01*
X1298364Y1373296D01*
X1289900D01*
X1287784Y1375412D01*
Y1379644D01*
X1289900Y1381760D01*
X1292016D01*
X1294132Y1379644D01*
Y1373296D01*
X1275080Y1381760D02*
Y1377528D01*
Y1379644D01*
X1262384D01*
X1264500Y1381760D01*
Y1371180D02*
X1262384Y1369064D01*
Y1364832D01*
X1264500Y1362716D01*
X1272964D01*
X1275080Y1364832D01*
Y1369064D01*
X1272964Y1371180D01*
X1264500D01*
X1275080Y1236136D02*
Y1244600D01*
X1266616Y1236136D01*
X1264500D01*
X1262384Y1238252D01*
Y1242484D01*
X1264500Y1244600D01*
X1300480Y1239520D02*
Y1235288D01*
Y1237404D01*
X1287784D01*
X1289900Y1239520D01*
X1298364Y1102360D02*
X1300480Y1100244D01*
Y1096012D01*
X1298364Y1093896D01*
X1289900D01*
X1287784Y1096012D01*
Y1100244D01*
X1289900Y1102360D01*
X1292016D01*
X1294132Y1100244D01*
Y1093896D01*
X1275080Y1102360D02*
Y1098128D01*
Y1100244D01*
X1262384D01*
X1264500Y1102360D01*
Y1091780D02*
X1262384Y1089664D01*
Y1085432D01*
X1264500Y1083316D01*
X1272964D01*
X1275080Y1085432D01*
Y1089664D01*
X1272964Y1091780D01*
X1264500D01*
X751840Y1493100D02*
X753956Y1490984D01*
X758188D01*
X760304Y1493100D01*
Y1495216D01*
X758188Y1497332D01*
X760304Y1499448D01*
Y1501564D01*
X758188Y1503680D01*
X753956D01*
X751840Y1501564D01*
Y1499448D01*
X753956Y1497332D01*
X751840Y1495216D01*
Y1493100D01*
X753956Y1497332D02*
X758188D01*
X751840Y1516384D02*
X760304D01*
Y1518500D01*
X751840Y1526964D01*
Y1529080D01*
X640080D02*
X644312D01*
X642196D01*
Y1516384D01*
X640080Y1518500D01*
X643464Y1503680D02*
X635000D01*
X643464Y1495216D01*
Y1493100D01*
X641348Y1490984D01*
X637116D01*
X635000Y1493100D01*
X742100Y1361440D02*
X744216Y1363556D01*
Y1367788D01*
X742100Y1369904D01*
X739984D01*
X737868Y1367788D01*
X735752Y1369904D01*
X733636D01*
X731520Y1367788D01*
Y1363556D01*
X733636Y1361440D01*
X735752D01*
X737868Y1363556D01*
X739984Y1361440D01*
X742100D01*
X737868Y1363556D02*
Y1367788D01*
X718816Y1361440D02*
Y1369904D01*
X716700D01*
X708236Y1361440D01*
X706120D01*
Y1249680D02*
Y1253912D01*
Y1251796D01*
X718816D01*
X716700Y1249680D01*
X731520Y1253064D02*
Y1244600D01*
X739984Y1253064D01*
X742100D01*
X744216Y1250948D01*
Y1246716D01*
X742100Y1244600D01*
X691300Y1031240D02*
X693416Y1033356D01*
Y1037588D01*
X691300Y1039704D01*
X689184D01*
X687068Y1037588D01*
X684952Y1039704D01*
X682836D01*
X680720Y1037588D01*
Y1033356D01*
X682836Y1031240D01*
X684952D01*
X687068Y1033356D01*
X689184Y1031240D01*
X691300D01*
X687068Y1033356D02*
Y1037588D01*
X668016Y1031240D02*
Y1039704D01*
X665900D01*
X657436Y1031240D01*
X655320D01*
Y919480D02*
Y923712D01*
Y921596D01*
X668016D01*
X665900Y919480D01*
X680720Y922864D02*
Y914400D01*
X689184Y922864D01*
X691300D01*
X693416Y920748D01*
Y916516D01*
X691300Y914400D01*
X880536Y889000D02*
X889000D01*
X880536Y897464D01*
Y899580D01*
X882652Y901696D01*
X886884D01*
X889000Y899580D01*
Y914400D02*
X884768D01*
X886884D01*
Y927096D01*
X889000Y924980D01*
M02*
