G04 Layer_Physical_Order=3*
G04 Layer_Color=128*
%FSLAX45Y45*%
%MOMM*%
%TF.FileFunction,Copper,L3,Inr,Plane*%
%TF.Part,Single*%
G01*
G75*
%TA.AperFunction,NonConductor*%
%ADD16C,0.25400*%
%ADD32C,1.01600*%
%TA.AperFunction,ComponentPad*%
%ADD33C,4.51600*%
%ADD35C,1.91600*%
G04:AMPARAMS|DCode=36|XSize=2.424mm|YSize=2.424mm|CornerRadius=0mm|HoleSize=0mm|Usage=FLASHONLY|Rotation=0.000|XOffset=0mm|YOffset=0mm|HoleType=Round|Shape=Relief|Width=0.254mm|Gap=0.254mm|Entries=4|*
%AMTHD36*
7,0,0,2.42400,1.91600,0.25400,45*
%
%ADD36THD36*%
%ADD37C,1.86600*%
%ADD38C,1.81600*%
G04:AMPARAMS|DCode=39|XSize=2.324mm|YSize=2.324mm|CornerRadius=0mm|HoleSize=0mm|Usage=FLASHONLY|Rotation=0.000|XOffset=0mm|YOffset=0mm|HoleType=Round|Shape=Relief|Width=0.254mm|Gap=0.254mm|Entries=4|*
%AMTHD39*
7,0,0,2.32400,1.81600,0.25400,45*
%
%ADD39THD39*%
%TA.AperFunction,ViaPad*%
%ADD40C,3.76600*%
%TA.AperFunction,ComponentPad*%
%ADD42C,2.21600*%
%ADD43C,2.01600*%
%TA.AperFunction,ViaPad*%
%ADD44C,1.72720*%
G04:AMPARAMS|DCode=45|XSize=2.2352mm|YSize=2.2352mm|CornerRadius=0mm|HoleSize=0mm|Usage=FLASHONLY|Rotation=0.000|XOffset=0mm|YOffset=0mm|HoleType=Round|Shape=Relief|Width=0.254mm|Gap=0.254mm|Entries=4|*
%AMTHD45*
7,0,0,2.23520,1.72720,0.25400,45*
%
%ADD45THD45*%
%TA.AperFunction,ComponentPad*%
%ADD46C,4.01600*%
D16*
X5547700Y12450000D02*
X14158299D01*
D32*
X5547700Y15473000D02*
X14158299D01*
Y5564800D02*
Y15473000D01*
X5547700Y5564800D02*
X14158299D01*
X5547700D02*
Y15473000D01*
D33*
X12684999Y11525001D02*
D03*
D35*
X11749998Y9146001D02*
D03*
Y9400001D02*
D03*
Y10000001D02*
D03*
Y9746001D02*
D03*
X9296400Y9144000D02*
D03*
Y8890000D02*
D03*
X9550400Y9144000D02*
D03*
Y8890000D02*
D03*
X9804400Y9144000D02*
D03*
Y8890000D02*
D03*
X10058400Y9144000D02*
D03*
Y8890000D02*
D03*
X10312400Y9144000D02*
D03*
X12770896Y13184302D02*
D03*
X12262896D02*
D03*
X12008896D02*
D03*
X11754896D02*
D03*
X11500896D02*
D03*
X11246896D02*
D03*
X10992896D02*
D03*
X10230896D02*
D03*
X9722896D02*
D03*
X9468896D02*
D03*
X9214896D02*
D03*
X8960896D02*
D03*
X8706896D02*
D03*
X8452896D02*
D03*
X7792496D02*
D03*
X7284496D02*
D03*
X7030496D02*
D03*
X6776496D02*
D03*
X6522496D02*
D03*
X6268496D02*
D03*
X6014496D02*
D03*
X13106400Y6350000D02*
D03*
X13360400D02*
D03*
X13106400Y6604000D02*
D03*
X13360400D02*
D03*
X13106400Y6858000D02*
D03*
X13360400D02*
D03*
X13106400Y7112000D02*
D03*
X13360400D02*
D03*
X13106400Y7366000D02*
D03*
X13360400D02*
D03*
X13106400Y7620000D02*
D03*
X13360400D02*
D03*
X13106400Y7874000D02*
D03*
X13360400D02*
D03*
X13106400Y8128000D02*
D03*
X13360400D02*
D03*
X13106400Y8382000D02*
D03*
X13360400D02*
D03*
X13106400Y8636000D02*
D03*
X13360400D02*
D03*
X6248400Y6350000D02*
D03*
X6502400D02*
D03*
X6248400Y6604000D02*
D03*
X6502400D02*
D03*
X6248400Y6858000D02*
D03*
X6502400D02*
D03*
X6248400Y7112000D02*
D03*
X6502400D02*
D03*
X6248400Y7366000D02*
D03*
X6502400D02*
D03*
X6248400Y7620000D02*
D03*
X6502400D02*
D03*
X6248400Y7874000D02*
D03*
X6502400D02*
D03*
X6248400Y8128000D02*
D03*
X6502400D02*
D03*
X6248400Y8382000D02*
D03*
X6502400D02*
D03*
X6248400Y8636000D02*
D03*
X6502400D02*
D03*
X7366000Y11150600D02*
D03*
Y10896600D02*
D03*
X7112000D02*
D03*
X7366000Y10642600D02*
D03*
X7112000D02*
D03*
X7366000Y10388600D02*
D03*
X7112000D02*
D03*
X7366000Y10134600D02*
D03*
X7112000D02*
D03*
X7366000Y9880600D02*
D03*
X7112000D02*
D03*
X7366000Y9626600D02*
D03*
X7112000D02*
D03*
X7366000Y9372600D02*
D03*
X7112000D02*
D03*
X7366000Y9118600D02*
D03*
X7112000D02*
D03*
X7366000Y8864600D02*
D03*
X7112000D02*
D03*
X7366000Y8610600D02*
D03*
X7112000D02*
D03*
X7366000Y8356600D02*
D03*
X7112000D02*
D03*
X7366000Y8102600D02*
D03*
X7112000D02*
D03*
X7366000Y7848600D02*
D03*
X7112000D02*
D03*
X7366000Y7594600D02*
D03*
X7112000D02*
D03*
X7366000Y7340600D02*
D03*
X7112000D02*
D03*
X7366000Y7086600D02*
D03*
X7112000D02*
D03*
X7366000Y6832600D02*
D03*
X7112000D02*
D03*
X7366000Y6578600D02*
D03*
X7112000D02*
D03*
X7366000Y6324600D02*
D03*
X7112000D02*
D03*
X8446002Y9649998D02*
D03*
X8700002D02*
D03*
D36*
X10312400Y8890000D02*
D03*
X12516896Y13184302D02*
D03*
X9976896D02*
D03*
X7538496D02*
D03*
X7112000Y11150600D02*
D03*
X8192002Y9649998D02*
D03*
D37*
X13099998Y12238000D02*
D03*
Y13762000D02*
D03*
X5950001Y12861996D02*
D03*
Y11337996D02*
D03*
X6300003D02*
D03*
Y12861996D02*
D03*
X6649999Y12862001D02*
D03*
Y11338001D02*
D03*
X7700000Y11387999D02*
D03*
Y12912000D02*
D03*
X12611999Y12549998D02*
D03*
X11087999D02*
D03*
X12611999Y12149999D02*
D03*
X11087999D02*
D03*
X10300000Y12912000D02*
D03*
Y11387999D02*
D03*
X10699999Y12912000D02*
D03*
Y11387999D02*
D03*
X8699998D02*
D03*
Y12912000D02*
D03*
X9849998Y11387999D02*
D03*
Y12912000D02*
D03*
X8250001D02*
D03*
Y11387999D02*
D03*
X9449999Y12912000D02*
D03*
Y11387999D02*
D03*
X13411200Y12192000D02*
D03*
Y13716000D02*
D03*
D38*
X9600001Y10624998D02*
D03*
Y11125002D02*
D03*
X10800004Y9800001D02*
D03*
X10300000D02*
D03*
X9650000Y10249998D02*
D03*
X10150004D02*
D03*
X11875003Y11625001D02*
D03*
X13271500Y14021501D02*
D03*
Y14275500D02*
D03*
X13273003Y15027000D02*
D03*
Y14773000D02*
D03*
D39*
X11374999Y11625001D02*
D03*
D40*
X12139000Y11662999D02*
D03*
X7239000Y5863001D02*
D03*
X12139000Y5871799D02*
D03*
X7239000Y11662999D02*
D03*
D42*
X11327002Y10400000D02*
D03*
X12373000D02*
D03*
D43*
X11052002Y11640000D02*
D03*
Y8520000D02*
D03*
D44*
X10950000Y11350000D02*
D03*
X10600000Y8650000D02*
D03*
X10289540Y10129520D02*
D03*
X9029700Y11485880D02*
D03*
X10150500Y11140440D02*
D03*
X10650000Y11000000D02*
D03*
D45*
X9500000Y12650000D02*
D03*
D46*
X13285004Y11525001D02*
D03*
X12984998Y11074999D02*
D03*
%TF.MD5,B18A8BCB023E4FC0F87FDFA98740D5DE*%
M02*
