G04 Layer_Color=65535*
%FSLAX44Y44*%
%MOMM*%
G71*
G01*
G75*
%ADD12C,0.3048*%
%ADD14C,0.2540*%
%ADD24C,0.2000*%
%ADD25C,0.6000*%
%ADD26C,0.2500*%
D12*
X553900Y1650560D02*
X1450340D01*
Y556300D02*
Y1650560D01*
X553900Y556300D02*
X1450340D01*
X553900D02*
Y1650560D01*
X953940Y1472600D02*
X1006940D01*
X953940Y1270600D02*
X974090D01*
X986790D02*
X1006940D01*
X953940D02*
Y1472600D01*
X1006940Y1270600D02*
Y1472600D01*
X933620Y827440D02*
X986620D01*
X933620Y625440D02*
X953770D01*
X966470D02*
X986620D01*
X933620D02*
Y827440D01*
X986620Y625440D02*
Y827440D01*
D14*
X1137917Y594355D02*
X1132838D01*
X1135378D01*
Y581659D01*
X1132838Y579120D01*
X1130299D01*
X1127760Y581659D01*
X1142995Y579120D02*
X1148073D01*
X1145534D01*
Y594355D01*
X1142995Y591816D01*
X1165848Y594355D02*
X1160769Y591816D01*
X1155691Y586738D01*
Y581659D01*
X1158230Y579120D01*
X1163308D01*
X1165848Y581659D01*
Y584198D01*
X1163308Y586738D01*
X1155691D01*
X1119124Y916686D02*
Y931921D01*
X1126741D01*
X1129281Y929382D01*
Y924304D01*
X1126741Y921764D01*
X1119124D01*
X1124202D02*
X1129281Y916686D01*
X1144516Y929382D02*
X1141977Y931921D01*
X1136898D01*
X1134359Y929382D01*
Y919225D01*
X1136898Y916686D01*
X1141977D01*
X1144516Y919225D01*
Y924304D01*
X1139437D01*
X1149594Y916686D02*
X1154672D01*
X1152133D01*
Y931921D01*
X1149594Y929382D01*
X1117600Y1296200D02*
Y1311435D01*
X1125218D01*
X1127757Y1308896D01*
Y1303817D01*
X1125218Y1301278D01*
X1117600D01*
X1122678D02*
X1127757Y1296200D01*
X1142992Y1308896D02*
X1140453Y1311435D01*
X1135374D01*
X1132835Y1308896D01*
Y1298739D01*
X1135374Y1296200D01*
X1140453D01*
X1142992Y1298739D01*
Y1303817D01*
X1137913D01*
X1158227Y1296200D02*
X1148070D01*
X1158227Y1306357D01*
Y1308896D01*
X1155688Y1311435D01*
X1150609D01*
X1148070Y1308896D01*
X835660Y1112520D02*
X850895D01*
Y1104902D01*
X848356Y1102363D01*
X843278D01*
X840738Y1104902D01*
Y1112520D01*
Y1107442D02*
X835660Y1102363D01*
Y1087128D02*
Y1097285D01*
X845817Y1087128D01*
X848356D01*
X850895Y1089667D01*
Y1094746D01*
X848356Y1097285D01*
X850900Y977900D02*
Y993135D01*
X858518D01*
X861057Y990596D01*
Y985518D01*
X858518Y982978D01*
X850900D01*
X855978D02*
X861057Y977900D01*
X866135D02*
X871213D01*
X868674D01*
Y993135D01*
X866135Y990596D01*
X1084580Y647700D02*
Y662935D01*
X1092197D01*
X1094737Y660396D01*
Y655318D01*
X1092197Y652778D01*
X1084580D01*
X1089658D02*
X1094737Y647700D01*
X1099815Y660396D02*
X1102354Y662935D01*
X1107433D01*
X1109972Y660396D01*
Y657857D01*
X1107433Y655318D01*
X1104893D01*
X1107433D01*
X1109972Y652778D01*
Y650239D01*
X1107433Y647700D01*
X1102354D01*
X1099815Y650239D01*
X1084580Y683260D02*
Y698495D01*
X1092197D01*
X1094737Y695956D01*
Y690878D01*
X1092197Y688338D01*
X1084580D01*
X1089658D02*
X1094737Y683260D01*
X1107433D02*
Y698495D01*
X1099815Y690878D01*
X1109972D01*
X866140Y670560D02*
X850905D01*
Y678177D01*
X853444Y680717D01*
X858522D01*
X861062Y678177D01*
Y670560D01*
Y675638D02*
X866140Y680717D01*
X853444Y685795D02*
X850905Y688334D01*
Y693413D01*
X853444Y695952D01*
X855983D01*
X858522Y693413D01*
X861062Y695952D01*
X863601D01*
X866140Y693413D01*
Y688334D01*
X863601Y685795D01*
X861062D01*
X858522Y688334D01*
X855983Y685795D01*
X853444D01*
X858522Y688334D02*
Y693413D01*
X815340Y670560D02*
X800105D01*
Y678177D01*
X802644Y680717D01*
X807722D01*
X810262Y678177D01*
Y670560D01*
Y675638D02*
X815340Y680717D01*
X800105Y685795D02*
Y695952D01*
X802644D01*
X812801Y685795D01*
X815340D01*
X1089660Y769620D02*
Y784855D01*
X1097278D01*
X1099817Y782316D01*
Y777237D01*
X1097278Y774698D01*
X1089660D01*
X1094738D02*
X1099817Y769620D01*
X1115052Y784855D02*
X1109973Y782316D01*
X1104895Y777237D01*
Y772159D01*
X1107434Y769620D01*
X1112513D01*
X1115052Y772159D01*
Y774698D01*
X1112513Y777237D01*
X1104895D01*
X1084580Y800100D02*
Y815335D01*
X1092197D01*
X1094737Y812796D01*
Y807718D01*
X1092197Y805178D01*
X1084580D01*
X1089658D02*
X1094737Y800100D01*
X1109972Y815335D02*
X1099815D01*
Y807718D01*
X1104893Y810257D01*
X1107433D01*
X1109972Y807718D01*
Y802639D01*
X1107433Y800100D01*
X1102354D01*
X1099815Y802639D01*
X1104900Y1353820D02*
Y1369055D01*
X1112517D01*
X1115057Y1366516D01*
Y1361438D01*
X1112517Y1358898D01*
X1104900D01*
X1109978D02*
X1115057Y1353820D01*
X1120135D02*
X1125213D01*
X1122674D01*
Y1369055D01*
X1120135Y1366516D01*
X1142988Y1353820D02*
X1132831D01*
X1142988Y1363977D01*
Y1366516D01*
X1140449Y1369055D01*
X1135370D01*
X1132831Y1366516D01*
X792480Y1450340D02*
Y1465575D01*
X800098D01*
X802637Y1463036D01*
Y1457957D01*
X800098Y1455418D01*
X792480D01*
X797558D02*
X802637Y1450340D01*
X807715D02*
X812793D01*
X810254D01*
Y1465575D01*
X807715Y1463036D01*
X820411D02*
X822950Y1465575D01*
X828028D01*
X830568Y1463036D01*
Y1460497D01*
X828028Y1457957D01*
X825489D01*
X828028D01*
X830568Y1455418D01*
Y1452879D01*
X828028Y1450340D01*
X822950D01*
X820411Y1452879D01*
X792480Y1414780D02*
Y1430015D01*
X800098D01*
X802637Y1427476D01*
Y1422397D01*
X800098Y1419858D01*
X792480D01*
X797558D02*
X802637Y1414780D01*
X807715D02*
X812793D01*
X810254D01*
Y1430015D01*
X807715Y1427476D01*
X828028Y1414780D02*
Y1430015D01*
X820411Y1422397D01*
X830568D01*
X1107440Y1384300D02*
Y1399535D01*
X1115058D01*
X1117597Y1396996D01*
Y1391918D01*
X1115058Y1389378D01*
X1107440D01*
X1112518D02*
X1117597Y1384300D01*
X1122675D02*
X1127753D01*
X1125214D01*
Y1399535D01*
X1122675Y1396996D01*
X1135371D02*
X1137910Y1399535D01*
X1142989D01*
X1145528Y1396996D01*
Y1386839D01*
X1142989Y1384300D01*
X1137910D01*
X1135371Y1386839D01*
Y1396996D01*
X1107440Y1414780D02*
Y1430015D01*
X1115058D01*
X1117597Y1427476D01*
Y1422397D01*
X1115058Y1419858D01*
X1107440D01*
X1112518D02*
X1117597Y1414780D01*
X1122675Y1417319D02*
X1125214Y1414780D01*
X1130293D01*
X1132832Y1417319D01*
Y1427476D01*
X1130293Y1430015D01*
X1125214D01*
X1122675Y1427476D01*
Y1424937D01*
X1125214Y1422397D01*
X1132832D01*
X982977Y1389380D02*
X975359D01*
X972820Y1386841D01*
Y1379223D01*
X982977D01*
X972820Y1374145D02*
Y1369067D01*
Y1371606D01*
X988055D01*
X985516Y1374145D01*
X965197Y746760D02*
X957579D01*
X955040Y744221D01*
Y736603D01*
X965197D01*
X955040Y721368D02*
Y731525D01*
X965197Y721368D01*
X967736D01*
X970275Y723907D01*
Y728986D01*
X967736Y731525D01*
X1224276Y1244603D02*
X1226815Y1247142D01*
Y1252221D01*
X1224276Y1254760D01*
X1214119D01*
X1211580Y1252221D01*
Y1247142D01*
X1214119Y1244603D01*
X1211580Y1239525D02*
Y1234447D01*
Y1236986D01*
X1226815D01*
X1224276Y1239525D01*
X1178557Y1097276D02*
X1176018Y1099815D01*
X1170939D01*
X1168400Y1097276D01*
Y1087119D01*
X1170939Y1084580D01*
X1176018D01*
X1178557Y1087119D01*
X1193792Y1084580D02*
X1183635D01*
X1193792Y1094737D01*
Y1097276D01*
X1191253Y1099815D01*
X1186174D01*
X1183635Y1097276D01*
X1229357Y1021076D02*
X1226817Y1023615D01*
X1221739D01*
X1219200Y1021076D01*
Y1010919D01*
X1221739Y1008380D01*
X1226817D01*
X1229357Y1010919D01*
X1234435Y1021076D02*
X1236974Y1023615D01*
X1242053D01*
X1244592Y1021076D01*
Y1018537D01*
X1242053Y1015997D01*
X1239513D01*
X1242053D01*
X1244592Y1013458D01*
Y1010919D01*
X1242053Y1008380D01*
X1236974D01*
X1234435Y1010919D01*
X774695Y1115063D02*
Y1120142D01*
Y1117602D01*
X761999D01*
X759460Y1120142D01*
Y1122681D01*
X761999Y1125220D01*
X759460Y1109985D02*
Y1104907D01*
Y1107446D01*
X774695D01*
X772156Y1109985D01*
X1107440Y1445260D02*
Y1460495D01*
X1115058D01*
X1117597Y1457956D01*
Y1452878D01*
X1115058Y1450338D01*
X1107440D01*
X1112518D02*
X1117597Y1445260D01*
X1122675D02*
X1127753D01*
X1125214D01*
Y1460495D01*
X1122675Y1457956D01*
X1135371Y1445260D02*
X1140449D01*
X1137910D01*
Y1460495D01*
X1135371Y1457956D01*
X1163320Y1625600D02*
X1170938D01*
X1173477Y1628139D01*
X1170938Y1630678D01*
X1165859D01*
X1163320Y1633217D01*
X1165859Y1635757D01*
X1173477D01*
X1178555Y1640835D02*
Y1625600D01*
Y1633217D01*
X1181094Y1635757D01*
X1186173D01*
X1188712Y1633217D01*
Y1625600D01*
X1193790D02*
X1198868D01*
X1196329D01*
Y1635757D01*
X1193790D01*
X1214104Y1625600D02*
X1209025D01*
X1206486Y1628139D01*
Y1633217D01*
X1209025Y1635757D01*
X1214104D01*
X1216643Y1633217D01*
Y1630678D01*
X1206486D01*
X1221721Y1625600D02*
X1226799D01*
X1224260D01*
Y1640835D01*
X1221721D01*
X1244574D02*
Y1625600D01*
X1236956D01*
X1234417Y1628139D01*
Y1633217D01*
X1236956Y1635757D01*
X1244574D01*
X1249652Y1640835D02*
Y1630678D01*
X1254730Y1625600D01*
X1259809Y1630678D01*
Y1640835D01*
X1275044Y1625600D02*
X1264887D01*
X1275044Y1635757D01*
Y1638296D01*
X1272505Y1640835D01*
X1267426D01*
X1264887Y1638296D01*
X1295357Y1625600D02*
X1300436D01*
X1297897D01*
Y1640835D01*
X1295357Y1638296D01*
X1308053Y1628139D02*
X1310592Y1625600D01*
X1315671D01*
X1318210Y1628139D01*
Y1638296D01*
X1315671Y1640835D01*
X1310592D01*
X1308053Y1638296D01*
Y1635757D01*
X1310592Y1633217D01*
X1318210D01*
X1323288Y1625600D02*
X1333445Y1635757D01*
X1338523Y1638296D02*
X1341062Y1640835D01*
X1346141D01*
X1348680Y1638296D01*
Y1628139D01*
X1346141Y1625600D01*
X1341062D01*
X1338523Y1628139D01*
Y1638296D01*
X1363915Y1625600D02*
X1353758D01*
X1363915Y1635757D01*
Y1638296D01*
X1361376Y1640835D01*
X1356298D01*
X1353758Y1638296D01*
X1368994Y1625600D02*
X1379150Y1635757D01*
X1394385Y1625600D02*
X1384229D01*
X1394385Y1635757D01*
Y1638296D01*
X1391846Y1640835D01*
X1386768D01*
X1384229Y1638296D01*
X1399464D02*
X1402003Y1640835D01*
X1407081D01*
X1409620Y1638296D01*
Y1628139D01*
X1407081Y1625600D01*
X1402003D01*
X1399464Y1628139D01*
Y1638296D01*
X1414699Y1625600D02*
X1419777D01*
X1417238D01*
Y1640835D01*
X1414699Y1638296D01*
X1437551Y1640835D02*
X1427395D01*
Y1633217D01*
X1432473Y1635757D01*
X1435012D01*
X1437551Y1633217D01*
Y1628139D01*
X1435012Y1625600D01*
X1429934D01*
X1427395Y1628139D01*
D24*
X1248765Y1026750D02*
G03*
X1213711Y1024317I-16865J-10750D01*
G01*
Y1007683D02*
G03*
X1248765Y1005250I18189J8317D01*
G01*
X1164235Y1081450D02*
G03*
X1199289Y1083883I16865J10750D01*
G01*
Y1100517D02*
G03*
X1164235Y1102950I-18189J-8317D01*
G01*
X1229950Y1227735D02*
G03*
X1227517Y1262789I-10750J16865D01*
G01*
X1210883D02*
G03*
X1208450Y1227735I8317J-18189D01*
G01*
X1121400Y1198450D02*
G03*
X1121400Y1198450I-1250J0D01*
G01*
X986790Y1270600D02*
G03*
X974090Y1270600I-6350J0D01*
G01*
X966470Y625440D02*
G03*
X953770Y625440I-6350J0D01*
G01*
X1120140Y627380D02*
X1170940D01*
X1120140Y601980D02*
Y627380D01*
X1170940Y601980D02*
Y627380D01*
X1120140Y601980D02*
X1170940D01*
X1117600Y838200D02*
X1219200D01*
X1117600D02*
Y914400D01*
X1219200D01*
Y838200D02*
Y914400D01*
X749300Y619760D02*
Y1127760D01*
X698500Y619760D02*
Y1127760D01*
X749300D01*
X698500Y619760D02*
X749300D01*
X1112520Y1292860D02*
X1173480D01*
Y1174750D02*
Y1292860D01*
X1112520Y1174750D02*
Y1292860D01*
X1148080Y690880D02*
X1163320D01*
X1031240D02*
X1046480D01*
Y678180D02*
Y703580D01*
Y678180D02*
X1148080D01*
Y703580D01*
X1046480D02*
X1148080D01*
X1031240Y655320D02*
X1046480D01*
X1148080D02*
X1163320D01*
X1148080Y642620D02*
Y668020D01*
X1046480D02*
X1148080D01*
X1046480Y642620D02*
Y668020D01*
Y642620D02*
X1148080D01*
X1153160Y777240D02*
X1168400D01*
X1036320D02*
X1051560D01*
Y764540D02*
Y789940D01*
Y764540D02*
X1153160D01*
Y789940D01*
X1051560D02*
X1153160D01*
X1031240Y807720D02*
X1046480D01*
X1148080D02*
X1163320D01*
X1148080Y795020D02*
Y820420D01*
X1046480D02*
X1148080D01*
X1046480Y795020D02*
Y820420D01*
Y795020D02*
X1148080D01*
X807720Y736600D02*
Y751840D01*
Y619760D02*
Y635000D01*
X795020D02*
X820420D01*
Y736600D01*
X795020D02*
X820420D01*
X795020Y635000D02*
Y736600D01*
X858520D02*
Y751840D01*
Y619760D02*
Y635000D01*
X845820D02*
X871220D01*
Y736600D01*
X845820D02*
X871220D01*
X845820Y635000D02*
Y736600D01*
X797560Y985520D02*
X812800D01*
X914400D02*
X929640D01*
X914400Y972820D02*
Y998220D01*
X812800D02*
X914400D01*
X812800Y972820D02*
Y998220D01*
Y972820D02*
X914400D01*
X843280Y1148080D02*
Y1163320D01*
Y1031240D02*
Y1046480D01*
X830580D02*
X855980D01*
Y1148080D01*
X830580D02*
X855980D01*
X830580Y1046480D02*
Y1148080D01*
X1173480Y1391920D02*
X1188720D01*
X1056640D02*
X1071880D01*
Y1379220D02*
Y1404620D01*
Y1379220D02*
X1173480D01*
Y1404620D01*
X1071880D02*
X1173480D01*
Y1361440D02*
X1188720D01*
X1056640D02*
X1071880D01*
Y1348740D02*
Y1374140D01*
Y1348740D02*
X1173480D01*
Y1374140D01*
X1071880D02*
X1173480D01*
Y1422400D02*
X1188720D01*
X1056640D02*
X1071880D01*
Y1409700D02*
Y1435100D01*
Y1409700D02*
X1173480D01*
Y1435100D01*
X1071880D02*
X1173480D01*
X863600Y1457960D02*
X878840D01*
X746760D02*
X762000D01*
Y1445260D02*
Y1470660D01*
Y1445260D02*
X863600D01*
Y1470660D01*
X762000D02*
X863600D01*
Y1422400D02*
X878840D01*
X746760D02*
X762000D01*
Y1409700D02*
Y1435100D01*
Y1409700D02*
X863600D01*
Y1435100D01*
X762000D02*
X863600D01*
X1056640Y1452880D02*
X1071880D01*
X1173480D02*
X1188720D01*
X1173480Y1440180D02*
Y1465580D01*
X1071880D02*
X1173480D01*
X1071880Y1440180D02*
Y1465580D01*
Y1440180D02*
X1173480D01*
D25*
X999940Y1280600D02*
G03*
X999940Y1280600I-3000J0D01*
G01*
X979620Y635440D02*
G03*
X979620Y635440I-3000J0D01*
G01*
D26*
X1019790Y1282400D02*
G03*
X1019790Y1282400I-1250J0D01*
G01*
X999470Y637240D02*
G03*
X999470Y637240I-1250J0D01*
G01*
M02*
