G04 Layer_Color=16711935*
%FSLAX44Y44*%
%MOMM*%
G71*
G01*
G75*
%ADD29C,1.7032*%
%ADD30R,1.7032X1.7032*%
%ADD31R,1.5532X1.5532*%
%ADD32C,1.5532*%
%ADD33R,1.5532X1.5532*%
%ADD34R,1.7032X1.7032*%
%ADD35C,1.7272*%
%ADD36C,1.6032*%
%ADD37C,1.4732*%
D29*
X1158240Y614680D02*
D03*
X1132840D02*
D03*
X1168400Y889000D02*
D03*
X1193800D02*
D03*
X1295400Y1270000D02*
D03*
Y1295400D02*
D03*
Y1320800D02*
D03*
Y1346200D02*
D03*
Y1371600D02*
D03*
Y1397000D02*
D03*
Y1422400D02*
D03*
Y1447800D02*
D03*
Y1473200D02*
D03*
Y990600D02*
D03*
Y1016000D02*
D03*
Y1041400D02*
D03*
Y1066800D02*
D03*
Y1092200D02*
D03*
Y1117600D02*
D03*
Y1143000D02*
D03*
Y1168400D02*
D03*
Y1193800D02*
D03*
X711200Y632460D02*
D03*
X736600D02*
D03*
X711200Y657860D02*
D03*
X736600D02*
D03*
X711200Y683260D02*
D03*
X736600D02*
D03*
X711200Y708660D02*
D03*
X736600D02*
D03*
X711200Y734060D02*
D03*
X736600D02*
D03*
X711200Y759460D02*
D03*
X736600D02*
D03*
X711200Y784860D02*
D03*
X736600D02*
D03*
X711200Y810260D02*
D03*
X736600D02*
D03*
X711200Y835660D02*
D03*
X736600D02*
D03*
X711200Y861060D02*
D03*
X736600D02*
D03*
X711200Y886460D02*
D03*
X736600D02*
D03*
X711200Y911860D02*
D03*
X736600D02*
D03*
X711200Y937260D02*
D03*
X736600D02*
D03*
X711200Y962660D02*
D03*
X736600D02*
D03*
X711200Y988060D02*
D03*
X736600D02*
D03*
X711200Y1013460D02*
D03*
X736600D02*
D03*
X711200Y1038860D02*
D03*
X736600D02*
D03*
X711200Y1064260D02*
D03*
X736600D02*
D03*
X711200Y1089660D02*
D03*
X736600D02*
D03*
X711200Y1115060D02*
D03*
X635000Y635000D02*
D03*
X609600Y660400D02*
D03*
X635000D02*
D03*
X609600Y685800D02*
D03*
X635000D02*
D03*
X609600Y711200D02*
D03*
X635000D02*
D03*
X609600Y736600D02*
D03*
X635000D02*
D03*
X609600Y762000D02*
D03*
X635000D02*
D03*
X609600Y787400D02*
D03*
X635000D02*
D03*
X609600Y812800D02*
D03*
X635000D02*
D03*
X609600Y838200D02*
D03*
X635000D02*
D03*
X609600Y863600D02*
D03*
X635000D02*
D03*
X1320800Y635000D02*
D03*
X1295400Y660400D02*
D03*
X1320800D02*
D03*
X1295400Y685800D02*
D03*
X1320800D02*
D03*
X1295400Y711200D02*
D03*
X1320800D02*
D03*
X1295400Y736600D02*
D03*
X1320800D02*
D03*
X1295400Y762000D02*
D03*
X1320800D02*
D03*
X1295400Y787400D02*
D03*
X1320800D02*
D03*
X1295400Y812800D02*
D03*
X1320800D02*
D03*
X1295400Y838200D02*
D03*
X1320800D02*
D03*
X1295400Y863600D02*
D03*
X1320800D02*
D03*
X685800Y1524000D02*
D03*
X711200D02*
D03*
X736600D02*
D03*
X762000D02*
D03*
X787400D02*
D03*
X812800D02*
D03*
X838200D02*
D03*
X711200Y1295400D02*
D03*
Y1320800D02*
D03*
Y1346200D02*
D03*
Y1371600D02*
D03*
Y1397000D02*
D03*
Y1422400D02*
D03*
Y1447800D02*
D03*
X660400Y965200D02*
D03*
Y990600D02*
D03*
Y1016000D02*
D03*
Y1041400D02*
D03*
Y1066800D02*
D03*
Y1092200D02*
D03*
Y1117600D02*
D03*
X1193800Y1524000D02*
D03*
X1016000D02*
D03*
X939800D02*
D03*
X1092200D02*
D03*
Y1066800D02*
D03*
X939800D02*
D03*
X1016000D02*
D03*
Y889000D02*
D03*
Y914400D02*
D03*
X990600Y889000D02*
D03*
Y914400D02*
D03*
X965200Y889000D02*
D03*
Y914400D02*
D03*
X939800Y889000D02*
D03*
Y914400D02*
D03*
X914400Y889000D02*
D03*
X942340Y1447800D02*
D03*
Y1422400D02*
D03*
Y1397000D02*
D03*
Y1371600D02*
D03*
Y1346200D02*
D03*
Y1320800D02*
D03*
Y1295400D02*
D03*
X1018540Y1447800D02*
D03*
Y1422400D02*
D03*
Y1397000D02*
D03*
Y1371600D02*
D03*
Y1346200D02*
D03*
Y1320800D02*
D03*
X922020Y802640D02*
D03*
Y777240D02*
D03*
Y751840D02*
D03*
Y726440D02*
D03*
Y701040D02*
D03*
Y675640D02*
D03*
Y650240D02*
D03*
X998220Y802640D02*
D03*
Y777240D02*
D03*
Y751840D02*
D03*
Y726440D02*
D03*
Y701040D02*
D03*
Y675640D02*
D03*
D30*
X1143000Y889000D02*
D03*
X660400Y1524000D02*
D03*
X1168400D02*
D03*
X990600D02*
D03*
X914400D02*
D03*
X1066800D02*
D03*
Y1066800D02*
D03*
X914400D02*
D03*
X990600D02*
D03*
X914400Y914400D02*
D03*
X1018540Y1295400D02*
D03*
X998220Y650240D02*
D03*
D31*
X1256900Y1016000D02*
D03*
X1156100Y1092200D02*
D03*
D32*
X1206900Y1016000D02*
D03*
X1206100Y1092200D02*
D03*
X1219200Y1269600D02*
D03*
D33*
Y1219600D02*
D03*
D34*
X1295400Y1498600D02*
D03*
Y1219200D02*
D03*
X736600Y1115060D02*
D03*
X609600Y635000D02*
D03*
X1295400D02*
D03*
X711200Y1270000D02*
D03*
X660400Y939800D02*
D03*
D35*
X723900Y1166300D02*
D03*
X1213900Y586300D02*
D03*
X723900D02*
D03*
X1213900Y1166300D02*
D03*
D36*
X1021080Y690880D02*
D03*
X1173480D02*
D03*
Y655320D02*
D03*
X1021080D02*
D03*
X1026160Y777240D02*
D03*
X1178560D02*
D03*
X1173480Y807720D02*
D03*
X1021080D02*
D03*
X807720Y609600D02*
D03*
Y762000D02*
D03*
X858520Y609600D02*
D03*
Y762000D02*
D03*
X939800Y985520D02*
D03*
X787400D02*
D03*
X843280Y1021080D02*
D03*
Y1173480D02*
D03*
X1046480Y1391920D02*
D03*
X1198880D02*
D03*
X1046480Y1361440D02*
D03*
X1198880D02*
D03*
X1046480Y1422400D02*
D03*
X1198880D02*
D03*
X736600Y1457960D02*
D03*
X889000D02*
D03*
X736600Y1422400D02*
D03*
X889000D02*
D03*
X1198880Y1452880D02*
D03*
X1046480D02*
D03*
D37*
X685800Y1392936D02*
D03*
X1104900Y1155700D02*
D03*
X647700Y895350D02*
D03*
X787400Y914400D02*
D03*
X635000Y1543050D02*
D03*
X1206500Y1118870D02*
D03*
X1295400Y914400D02*
D03*
Y939800D02*
D03*
Y963930D02*
D03*
X678688Y1058926D02*
D03*
X1072896Y726440D02*
D03*
X976630Y1029970D02*
D03*
X747776Y949960D02*
D03*
X858520Y738124D02*
D03*
X1090000Y750000D02*
D03*
M02*
