G04 Layer_Color=2752767*
%FSLAX45Y45*%
%MOMM*%
%TF.FileFunction,Drawing*%
%TF.Part,Single*%
G01*
G75*
%TA.AperFunction,NonConductor*%
%ADD68C,0.12700*%
%ADD90C,0.16933*%
D68*
X12634199Y11474201D02*
Y11575801D01*
X12735799D01*
Y11474201D01*
X12634199D01*
X11749998Y9095201D02*
X11699198Y9196801D01*
X11800798D01*
X11749998Y9095201D01*
Y9349201D02*
X11699198Y9450801D01*
X11800798D01*
X11749998Y9349201D01*
Y9949201D02*
X11699198Y10050801D01*
X11800798D01*
X11749998Y9949201D01*
Y9695201D02*
X11699198Y9796801D01*
X11800798D01*
X11749998Y9695201D01*
X13099998Y12187200D02*
X13125398Y12212600D01*
X13150800D01*
X13125398Y12238000D01*
X13150800Y12263400D01*
X13125398D01*
X13099998Y12288800D01*
X13074599Y12263400D01*
X13049199D01*
X13074599Y12238000D01*
X13049199Y12212600D01*
X13074599D01*
X13099998Y12187200D01*
Y13711200D02*
X13125398Y13736600D01*
X13150800D01*
X13125398Y13762000D01*
X13150800Y13787399D01*
X13125398D01*
X13099998Y13812801D01*
X13074599Y13787399D01*
X13049199D01*
X13074599Y13762000D01*
X13049199Y13736600D01*
X13074599D01*
X13099998Y13711200D01*
X9549201Y10574198D02*
X9574601Y10624998D01*
X9549201Y10675798D01*
X9600001Y10650398D01*
X9650801Y10675798D01*
X9625401Y10624998D01*
X9650801Y10574198D01*
X9600001Y10599598D01*
X9549201Y10574198D01*
Y11074202D02*
X9574601Y11125002D01*
X9549201Y11175802D01*
X9600001Y11150402D01*
X9650801Y11175802D01*
X9625401Y11125002D01*
X9650801Y11074202D01*
X9600001Y11099602D01*
X9549201Y11074202D01*
X5950001Y12811195D02*
X5975401Y12836597D01*
X6000801D01*
X5975401Y12861996D01*
X6000801Y12887396D01*
X5975401D01*
X5950001Y12912796D01*
X5924601Y12887396D01*
X5899201D01*
X5924601Y12861996D01*
X5899201Y12836597D01*
X5924601D01*
X5950001Y12811195D01*
Y11287196D02*
X5975401Y11312596D01*
X6000801D01*
X5975401Y11337996D01*
X6000801Y11363396D01*
X5975401D01*
X5950001Y11388796D01*
X5924601Y11363396D01*
X5899201D01*
X5924601Y11337996D01*
X5899201Y11312596D01*
X5924601D01*
X5950001Y11287196D01*
X6300003D02*
X6325403Y11312596D01*
X6350803D01*
X6325403Y11337996D01*
X6350803Y11363396D01*
X6325403D01*
X6300003Y11388796D01*
X6274603Y11363396D01*
X6249203D01*
X6274603Y11337996D01*
X6249203Y11312596D01*
X6274603D01*
X6300003Y11287196D01*
Y12811195D02*
X6325403Y12836597D01*
X6350803D01*
X6325403Y12861996D01*
X6350803Y12887396D01*
X6325403D01*
X6300003Y12912796D01*
X6274603Y12887396D01*
X6249203D01*
X6274603Y12861996D01*
X6249203Y12836597D01*
X6274603D01*
X6300003Y12811195D01*
X6649999Y12811201D02*
X6675399Y12836601D01*
X6700799D01*
X6675399Y12862001D01*
X6700799Y12887401D01*
X6675399D01*
X6649999Y12912801D01*
X6624599Y12887401D01*
X6599199D01*
X6624599Y12862001D01*
X6599199Y12836601D01*
X6624599D01*
X6649999Y12811201D01*
Y11287201D02*
X6675399Y11312601D01*
X6700799D01*
X6675399Y11338001D01*
X6700799Y11363401D01*
X6675399D01*
X6649999Y11388801D01*
X6624599Y11363401D01*
X6599199D01*
X6624599Y11338001D01*
X6599199Y11312601D01*
X6624599D01*
X6649999Y11287201D01*
X7700000Y11337199D02*
X7725400Y11362599D01*
X7750800D01*
X7725400Y11387999D01*
X7750800Y11413399D01*
X7725400D01*
X7700000Y11438799D01*
X7674600Y11413399D01*
X7649200D01*
X7674600Y11387999D01*
X7649200Y11362599D01*
X7674600D01*
X7700000Y11337199D01*
Y12861198D02*
X7725400Y12886600D01*
X7750800D01*
X7725400Y12912000D01*
X7750800Y12937399D01*
X7725400D01*
X7700000Y12962799D01*
X7674600Y12937399D01*
X7649200D01*
X7674600Y12912000D01*
X7649200Y12886600D01*
X7674600D01*
X7700000Y12861198D01*
X12113600Y11637599D02*
Y11612199D01*
X12164400D01*
Y11637599D01*
X12189800D01*
Y11688399D01*
X12164400D01*
Y11713799D01*
X12113600D01*
Y11688399D01*
X12088200D01*
Y11637599D01*
X12113600D01*
X7213600Y5837601D02*
Y5812201D01*
X7264400D01*
Y5837601D01*
X7289800D01*
Y5888401D01*
X7264400D01*
Y5913801D01*
X7213600D01*
Y5888401D01*
X7188200D01*
Y5837601D01*
X7213600D01*
X12113600Y5846399D02*
Y5820999D01*
X12164400D01*
Y5846399D01*
X12189800D01*
Y5897199D01*
X12164400D01*
Y5922599D01*
X12113600D01*
Y5897199D01*
X12088200D01*
Y5846399D01*
X12113600D01*
X7213600Y11637599D02*
Y11612199D01*
X7264400D01*
Y11637599D01*
X7289800D01*
Y11688399D01*
X7264400D01*
Y11713799D01*
X7213600D01*
Y11688399D01*
X7188200D01*
Y11637599D01*
X7213600D01*
X9296400Y9093200D02*
X9245600Y9194800D01*
X9347200D01*
X9296400Y9093200D01*
Y8839200D02*
X9245600Y8940800D01*
X9347200D01*
X9296400Y8839200D01*
X9550400Y9093200D02*
X9499600Y9194800D01*
X9601200D01*
X9550400Y9093200D01*
Y8839200D02*
X9499600Y8940800D01*
X9601200D01*
X9550400Y8839200D01*
X9804400Y9093200D02*
X9753600Y9194800D01*
X9855200D01*
X9804400Y9093200D01*
Y8839200D02*
X9753600Y8940800D01*
X9855200D01*
X9804400Y8839200D01*
X10058400Y9093200D02*
X10007600Y9194800D01*
X10109200D01*
X10058400Y9093200D01*
Y8839200D02*
X10007600Y8940800D01*
X10109200D01*
X10058400Y8839200D01*
X10312400Y9093200D02*
X10261600Y9194800D01*
X10363200D01*
X10312400Y9093200D01*
Y8839200D02*
X10261600Y8940800D01*
X10363200D01*
X10312400Y8839200D01*
X12770896Y13133502D02*
X12720096Y13235101D01*
X12821696D01*
X12770896Y13133502D01*
X12516896D02*
X12466096Y13235101D01*
X12567696D01*
X12516896Y13133502D01*
X12262896D02*
X12212096Y13235101D01*
X12313696D01*
X12262896Y13133502D01*
X12008896D02*
X11958096Y13235101D01*
X12059696D01*
X12008896Y13133502D01*
X11754896D02*
X11704096Y13235101D01*
X11805696D01*
X11754896Y13133502D01*
X11500896D02*
X11450096Y13235101D01*
X11551696D01*
X11500896Y13133502D01*
X11246896D02*
X11196096Y13235101D01*
X11297696D01*
X11246896Y13133502D01*
X10992896D02*
X10942096Y13235101D01*
X11043696D01*
X10992896Y13133502D01*
X10230896D02*
X10180096Y13235101D01*
X10281696D01*
X10230896Y13133502D01*
X9976896D02*
X9926096Y13235101D01*
X10027696D01*
X9976896Y13133502D01*
X9722896D02*
X9672096Y13235101D01*
X9773696D01*
X9722896Y13133502D01*
X9468896D02*
X9418096Y13235101D01*
X9519696D01*
X9468896Y13133502D01*
X9214896D02*
X9164096Y13235101D01*
X9265696D01*
X9214896Y13133502D01*
X8960896D02*
X8910096Y13235101D01*
X9011696D01*
X8960896Y13133502D01*
X8706896D02*
X8656096Y13235101D01*
X8757696D01*
X8706896Y13133502D01*
X8452896D02*
X8402096Y13235101D01*
X8503696D01*
X8452896Y13133502D01*
X7792496D02*
X7741696Y13235101D01*
X7843296D01*
X7792496Y13133502D01*
X7538496D02*
X7487696Y13235101D01*
X7589296D01*
X7538496Y13133502D01*
X7284496D02*
X7233696Y13235101D01*
X7335296D01*
X7284496Y13133502D01*
X7030496D02*
X6979696Y13235101D01*
X7081296D01*
X7030496Y13133502D01*
X6776496D02*
X6725696Y13235101D01*
X6827296D01*
X6776496Y13133502D01*
X6522496D02*
X6471696Y13235101D01*
X6573296D01*
X6522496Y13133502D01*
X6268496D02*
X6217696Y13235101D01*
X6319296D01*
X6268496Y13133502D01*
X6014496D02*
X5963696Y13235101D01*
X6065296D01*
X6014496Y13133502D01*
X13106400Y6299200D02*
X13055600Y6400800D01*
X13157201D01*
X13106400Y6299200D01*
X13360400D02*
X13309599Y6400800D01*
X13411200D01*
X13360400Y6299200D01*
X13106400Y6553200D02*
X13055600Y6654800D01*
X13157201D01*
X13106400Y6553200D01*
X13360400D02*
X13309599Y6654800D01*
X13411200D01*
X13360400Y6553200D01*
X13106400Y6807200D02*
X13055600Y6908800D01*
X13157201D01*
X13106400Y6807200D01*
X13360400D02*
X13309599Y6908800D01*
X13411200D01*
X13360400Y6807200D01*
X13106400Y7061200D02*
X13055600Y7162800D01*
X13157201D01*
X13106400Y7061200D01*
X13360400D02*
X13309599Y7162800D01*
X13411200D01*
X13360400Y7061200D01*
X13106400Y7315200D02*
X13055600Y7416800D01*
X13157201D01*
X13106400Y7315200D01*
X13360400D02*
X13309599Y7416800D01*
X13411200D01*
X13360400Y7315200D01*
X13106400Y7569200D02*
X13055600Y7670800D01*
X13157201D01*
X13106400Y7569200D01*
X13360400D02*
X13309599Y7670800D01*
X13411200D01*
X13360400Y7569200D01*
X13106400Y7823200D02*
X13055600Y7924800D01*
X13157201D01*
X13106400Y7823200D01*
X13360400D02*
X13309599Y7924800D01*
X13411200D01*
X13360400Y7823200D01*
X13106400Y8077200D02*
X13055600Y8178800D01*
X13157201D01*
X13106400Y8077200D01*
X13360400D02*
X13309599Y8178800D01*
X13411200D01*
X13360400Y8077200D01*
X13106400Y8331200D02*
X13055600Y8432800D01*
X13157201D01*
X13106400Y8331200D01*
X13360400D02*
X13309599Y8432800D01*
X13411200D01*
X13360400Y8331200D01*
X13106400Y8585200D02*
X13055600Y8686800D01*
X13157201D01*
X13106400Y8585200D01*
X13360400D02*
X13309599Y8686800D01*
X13411200D01*
X13360400Y8585200D01*
X6248400Y6299200D02*
X6197600Y6400800D01*
X6299200D01*
X6248400Y6299200D01*
X6502400D02*
X6451600Y6400800D01*
X6553200D01*
X6502400Y6299200D01*
X6248400Y6553200D02*
X6197600Y6654800D01*
X6299200D01*
X6248400Y6553200D01*
X6502400D02*
X6451600Y6654800D01*
X6553200D01*
X6502400Y6553200D01*
X6248400Y6807200D02*
X6197600Y6908800D01*
X6299200D01*
X6248400Y6807200D01*
X6502400D02*
X6451600Y6908800D01*
X6553200D01*
X6502400Y6807200D01*
X6248400Y7061200D02*
X6197600Y7162800D01*
X6299200D01*
X6248400Y7061200D01*
X6502400D02*
X6451600Y7162800D01*
X6553200D01*
X6502400Y7061200D01*
X6248400Y7315200D02*
X6197600Y7416800D01*
X6299200D01*
X6248400Y7315200D01*
X6502400D02*
X6451600Y7416800D01*
X6553200D01*
X6502400Y7315200D01*
X6248400Y7569200D02*
X6197600Y7670800D01*
X6299200D01*
X6248400Y7569200D01*
X6502400D02*
X6451600Y7670800D01*
X6553200D01*
X6502400Y7569200D01*
X6248400Y7823200D02*
X6197600Y7924800D01*
X6299200D01*
X6248400Y7823200D01*
X6502400D02*
X6451600Y7924800D01*
X6553200D01*
X6502400Y7823200D01*
X6248400Y8077200D02*
X6197600Y8178800D01*
X6299200D01*
X6248400Y8077200D01*
X6502400D02*
X6451600Y8178800D01*
X6553200D01*
X6502400Y8077200D01*
X6248400Y8331200D02*
X6197600Y8432800D01*
X6299200D01*
X6248400Y8331200D01*
X6502400D02*
X6451600Y8432800D01*
X6553200D01*
X6502400Y8331200D01*
X6248400Y8585200D02*
X6197600Y8686800D01*
X6299200D01*
X6248400Y8585200D01*
X6502400D02*
X6451600Y8686800D01*
X6553200D01*
X6502400Y8585200D01*
X7366000Y11099800D02*
X7315200Y11201400D01*
X7416800D01*
X7366000Y11099800D01*
X7112000D02*
X7061200Y11201400D01*
X7162800D01*
X7112000Y11099800D01*
X7366000Y10845800D02*
X7315200Y10947400D01*
X7416800D01*
X7366000Y10845800D01*
X7112000D02*
X7061200Y10947400D01*
X7162800D01*
X7112000Y10845800D01*
X7366000Y10591800D02*
X7315200Y10693400D01*
X7416800D01*
X7366000Y10591800D01*
X7112000D02*
X7061200Y10693400D01*
X7162800D01*
X7112000Y10591800D01*
X7366000Y10337800D02*
X7315200Y10439400D01*
X7416800D01*
X7366000Y10337800D01*
X7112000D02*
X7061200Y10439400D01*
X7162800D01*
X7112000Y10337800D01*
X7366000Y10083800D02*
X7315200Y10185400D01*
X7416800D01*
X7366000Y10083800D01*
X7112000D02*
X7061200Y10185400D01*
X7162800D01*
X7112000Y10083800D01*
X7366000Y9829800D02*
X7315200Y9931400D01*
X7416800D01*
X7366000Y9829800D01*
X7112000D02*
X7061200Y9931400D01*
X7162800D01*
X7112000Y9829800D01*
X7366000Y9575800D02*
X7315200Y9677400D01*
X7416800D01*
X7366000Y9575800D01*
X7112000D02*
X7061200Y9677400D01*
X7162800D01*
X7112000Y9575800D01*
X7366000Y9321800D02*
X7315200Y9423400D01*
X7416800D01*
X7366000Y9321800D01*
X7112000D02*
X7061200Y9423400D01*
X7162800D01*
X7112000Y9321800D01*
X7366000Y9067800D02*
X7315200Y9169400D01*
X7416800D01*
X7366000Y9067800D01*
X7112000D02*
X7061200Y9169400D01*
X7162800D01*
X7112000Y9067800D01*
X7366000Y8813800D02*
X7315200Y8915400D01*
X7416800D01*
X7366000Y8813800D01*
X7112000D02*
X7061200Y8915400D01*
X7162800D01*
X7112000Y8813800D01*
X7366000Y8559800D02*
X7315200Y8661400D01*
X7416800D01*
X7366000Y8559800D01*
X7112000D02*
X7061200Y8661400D01*
X7162800D01*
X7112000Y8559800D01*
X7366000Y8305800D02*
X7315200Y8407400D01*
X7416800D01*
X7366000Y8305800D01*
X7112000D02*
X7061200Y8407400D01*
X7162800D01*
X7112000Y8305800D01*
X7366000Y8051800D02*
X7315200Y8153400D01*
X7416800D01*
X7366000Y8051800D01*
X7112000D02*
X7061200Y8153400D01*
X7162800D01*
X7112000Y8051800D01*
X7366000Y7797800D02*
X7315200Y7899400D01*
X7416800D01*
X7366000Y7797800D01*
X7112000D02*
X7061200Y7899400D01*
X7162800D01*
X7112000Y7797800D01*
X7366000Y7543800D02*
X7315200Y7645400D01*
X7416800D01*
X7366000Y7543800D01*
X7112000D02*
X7061200Y7645400D01*
X7162800D01*
X7112000Y7543800D01*
X7366000Y7289800D02*
X7315200Y7391400D01*
X7416800D01*
X7366000Y7289800D01*
X7112000D02*
X7061200Y7391400D01*
X7162800D01*
X7112000Y7289800D01*
X7366000Y7035800D02*
X7315200Y7137400D01*
X7416800D01*
X7366000Y7035800D01*
X7112000D02*
X7061200Y7137400D01*
X7162800D01*
X7112000Y7035800D01*
X7366000Y6781800D02*
X7315200Y6883400D01*
X7416800D01*
X7366000Y6781800D01*
X7112000D02*
X7061200Y6883400D01*
X7162800D01*
X7112000Y6781800D01*
X7366000Y6527800D02*
X7315200Y6629400D01*
X7416800D01*
X7366000Y6527800D01*
X7112000D02*
X7061200Y6629400D01*
X7162800D01*
X7112000Y6527800D01*
X7366000Y6273800D02*
X7315200Y6375400D01*
X7416800D01*
X7366000Y6273800D01*
X7112000D02*
X7061200Y6375400D01*
X7162800D01*
X7112000Y6273800D01*
X10749204Y9749201D02*
X10774604Y9800001D01*
X10749204Y9850801D01*
X10800004Y9825401D01*
X10850804Y9850801D01*
X10825404Y9800001D01*
X10850804Y9749201D01*
X10800004Y9774601D01*
X10749204Y9749201D01*
X10249200D02*
X10274600Y9800001D01*
X10249200Y9850801D01*
X10300000Y9825401D01*
X10350800Y9850801D01*
X10325400Y9800001D01*
X10350800Y9749201D01*
X10300000Y9774601D01*
X10249200Y9749201D01*
X9599200Y10199198D02*
X9624600Y10249998D01*
X9599200Y10300798D01*
X9650000Y10275398D01*
X9700800Y10300798D01*
X9675400Y10249998D01*
X9700800Y10199198D01*
X9650000Y10224598D01*
X9599200Y10199198D01*
X10099204D02*
X10124604Y10249998D01*
X10099204Y10300798D01*
X10150004Y10275398D01*
X10200804Y10300798D01*
X10175404Y10249998D01*
X10200804Y10199198D01*
X10150004Y10224598D01*
X10099204Y10199198D01*
X11324199Y11574201D02*
X11349599Y11625001D01*
X11324199Y11675801D01*
X11374999Y11650401D01*
X11425799Y11675801D01*
X11400399Y11625001D01*
X11425799Y11574201D01*
X11374999Y11599601D01*
X11324199Y11574201D01*
X11824203D02*
X11849603Y11625001D01*
X11824203Y11675801D01*
X11875003Y11650401D01*
X11925803Y11675801D01*
X11900403Y11625001D01*
X11925803Y11574201D01*
X11875003Y11599601D01*
X11824203Y11574201D01*
X8192002Y9599198D02*
X8141202Y9700798D01*
X8242802D01*
X8192002Y9599198D01*
X8446002D02*
X8395202Y9700798D01*
X8496802D01*
X8446002Y9599198D01*
X8700002D02*
X8649202Y9700798D01*
X8750802D01*
X8700002Y9599198D01*
X12611999Y12499198D02*
X12637399Y12524598D01*
X12662799D01*
X12637399Y12549998D01*
X12662799Y12575398D01*
X12637399D01*
X12611999Y12600798D01*
X12586599Y12575398D01*
X12561199D01*
X12586599Y12549998D01*
X12561199Y12524598D01*
X12586599D01*
X12611999Y12499198D01*
X11087999D02*
X11113399Y12524598D01*
X11138799D01*
X11113399Y12549998D01*
X11138799Y12575398D01*
X11113399D01*
X11087999Y12600798D01*
X11062599Y12575398D01*
X11037199D01*
X11062599Y12549998D01*
X11037199Y12524598D01*
X11062599D01*
X11087999Y12499198D01*
X12611999Y12099199D02*
X12637399Y12124599D01*
X12662799D01*
X12637399Y12149999D01*
X12662799Y12175399D01*
X12637399D01*
X12611999Y12200799D01*
X12586599Y12175399D01*
X12561199D01*
X12586599Y12149999D01*
X12561199Y12124599D01*
X12586599D01*
X12611999Y12099199D01*
X11087999D02*
X11113399Y12124599D01*
X11138799D01*
X11113399Y12149999D01*
X11138799Y12175399D01*
X11113399D01*
X11087999Y12200799D01*
X11062599Y12175399D01*
X11037199D01*
X11062599Y12149999D01*
X11037199Y12124599D01*
X11062599D01*
X11087999Y12099199D01*
X10300000Y12861198D02*
X10325400Y12886600D01*
X10350800D01*
X10325400Y12912000D01*
X10350800Y12937399D01*
X10325400D01*
X10300000Y12962799D01*
X10274600Y12937399D01*
X10249200D01*
X10274600Y12912000D01*
X10249200Y12886600D01*
X10274600D01*
X10300000Y12861198D01*
Y11337199D02*
X10325400Y11362599D01*
X10350800D01*
X10325400Y11387999D01*
X10350800Y11413399D01*
X10325400D01*
X10300000Y11438799D01*
X10274600Y11413399D01*
X10249200D01*
X10274600Y11387999D01*
X10249200Y11362599D01*
X10274600D01*
X10300000Y11337199D01*
X10699999Y12861198D02*
X10725399Y12886600D01*
X10750799D01*
X10725399Y12912000D01*
X10750799Y12937399D01*
X10725399D01*
X10699999Y12962799D01*
X10674599Y12937399D01*
X10649199D01*
X10674599Y12912000D01*
X10649199Y12886600D01*
X10674599D01*
X10699999Y12861198D01*
Y11337199D02*
X10725399Y11362599D01*
X10750799D01*
X10725399Y11387999D01*
X10750799Y11413399D01*
X10725399D01*
X10699999Y11438799D01*
X10674599Y11413399D01*
X10649199D01*
X10674599Y11387999D01*
X10649199Y11362599D01*
X10674599D01*
X10699999Y11337199D01*
X8699998D02*
X8725398Y11362599D01*
X8750798D01*
X8725398Y11387999D01*
X8750798Y11413399D01*
X8725398D01*
X8699998Y11438799D01*
X8674598Y11413399D01*
X8649198D01*
X8674598Y11387999D01*
X8649198Y11362599D01*
X8674598D01*
X8699998Y11337199D01*
Y12861198D02*
X8725398Y12886600D01*
X8750798D01*
X8725398Y12912000D01*
X8750798Y12937399D01*
X8725398D01*
X8699998Y12962799D01*
X8674598Y12937399D01*
X8649198D01*
X8674598Y12912000D01*
X8649198Y12886600D01*
X8674598D01*
X8699998Y12861198D01*
X9849998Y11337199D02*
X9875398Y11362599D01*
X9900798D01*
X9875398Y11387999D01*
X9900798Y11413399D01*
X9875398D01*
X9849998Y11438799D01*
X9824598Y11413399D01*
X9799198D01*
X9824598Y11387999D01*
X9799198Y11362599D01*
X9824598D01*
X9849998Y11337199D01*
Y12861198D02*
X9875398Y12886600D01*
X9900798D01*
X9875398Y12912000D01*
X9900798Y12937399D01*
X9875398D01*
X9849998Y12962799D01*
X9824598Y12937399D01*
X9799198D01*
X9824598Y12912000D01*
X9799198Y12886600D01*
X9824598D01*
X9849998Y12861198D01*
X8250001D02*
X8275401Y12886600D01*
X8300801D01*
X8275401Y12912000D01*
X8300801Y12937399D01*
X8275401D01*
X8250001Y12962799D01*
X8224601Y12937399D01*
X8199201D01*
X8224601Y12912000D01*
X8199201Y12886600D01*
X8224601D01*
X8250001Y12861198D01*
Y11337199D02*
X8275401Y11362599D01*
X8300801D01*
X8275401Y11387999D01*
X8300801Y11413399D01*
X8275401D01*
X8250001Y11438799D01*
X8224601Y11413399D01*
X8199201D01*
X8224601Y11387999D01*
X8199201Y11362599D01*
X8224601D01*
X8250001Y11337199D01*
X9449999Y12861198D02*
X9475399Y12886600D01*
X9500799D01*
X9475399Y12912000D01*
X9500799Y12937399D01*
X9475399D01*
X9449999Y12962799D01*
X9424599Y12937399D01*
X9399199D01*
X9424599Y12912000D01*
X9399199Y12886600D01*
X9424599D01*
X9449999Y12861198D01*
Y11337199D02*
X9475399Y11362599D01*
X9500799D01*
X9475399Y11387999D01*
X9500799Y11413399D01*
X9475399D01*
X9449999Y11438799D01*
X9424599Y11413399D01*
X9399199D01*
X9424599Y11387999D01*
X9399199Y11362599D01*
X9424599D01*
X9449999Y11337199D01*
X13411200Y12141200D02*
X13436600Y12166600D01*
X13462000D01*
X13436600Y12192000D01*
X13462000Y12217400D01*
X13436600D01*
X13411200Y12242800D01*
X13385800Y12217400D01*
X13360400D01*
X13385800Y12192000D01*
X13360400Y12166600D01*
X13385800D01*
X13411200Y12141200D01*
Y13665199D02*
X13436600Y13690601D01*
X13462000D01*
X13436600Y13716000D01*
X13462000Y13741400D01*
X13436600D01*
X13411200Y13766800D01*
X13385800Y13741400D01*
X13360400D01*
X13385800Y13716000D01*
X13360400Y13690601D01*
X13385800D01*
X13411200Y13665199D01*
X11276202Y10349200D02*
X11301602D01*
X11327002Y10374600D01*
X11352402Y10349200D01*
X11377802D01*
Y10374600D01*
X11352402Y10400000D01*
X11377802Y10425400D01*
Y10450800D01*
X11352402D01*
X11327002Y10425400D01*
X11301602Y10450800D01*
X11276202D01*
Y10425400D01*
X11301602Y10400000D01*
X11276202Y10374600D01*
Y10349200D01*
X12322200D02*
X12347600D01*
X12373000Y10374600D01*
X12398400Y10349200D01*
X12423800D01*
Y10374600D01*
X12398400Y10400000D01*
X12423800Y10425400D01*
Y10450800D01*
X12398400D01*
X12373000Y10425400D01*
X12347600Y10450800D01*
X12322200D01*
Y10425400D01*
X12347600Y10400000D01*
X12322200Y10374600D01*
Y10349200D01*
X11001202Y11640000D02*
X11052002Y11690800D01*
X11102802Y11640000D01*
X11052002Y11589200D01*
X11001202Y11640000D01*
Y8520000D02*
X11052002Y8570800D01*
X11102802Y8520000D01*
X11052002Y8469200D01*
X11001202Y8520000D01*
X13220700Y13970702D02*
X13246100Y14021501D01*
X13220700Y14072301D01*
X13271500Y14046901D01*
X13322301Y14072301D01*
X13296899Y14021501D01*
X13322301Y13970702D01*
X13271500Y13996101D01*
X13220700Y13970702D01*
Y14224701D02*
X13246100Y14275500D01*
X13220700Y14326302D01*
X13271500Y14300900D01*
X13322301Y14326302D01*
X13296899Y14275500D01*
X13322301Y14224701D01*
X13271500Y14250101D01*
X13220700Y14224701D01*
X13222203Y14976199D02*
X13247603Y15027000D01*
X13222203Y15077800D01*
X13273003Y15052400D01*
X13323804Y15077800D01*
X13298402Y15027000D01*
X13323804Y14976199D01*
X13273003Y15001601D01*
X13222203Y14976199D01*
Y14722200D02*
X13247603Y14773000D01*
X13222203Y14823801D01*
X13273003Y14798399D01*
X13323804Y14823801D01*
X13298402Y14773000D01*
X13323804Y14722200D01*
X13273003Y14747600D01*
X13222203Y14722200D01*
X10899200Y11299200D02*
Y11400800D01*
X11000800D01*
Y11299200D01*
X10899200D01*
X10919520Y11319520D02*
Y11380480D01*
X10980480D01*
Y11319520D01*
X10919520D01*
X10549200Y8599200D02*
Y8700800D01*
X10650800D01*
Y8599200D01*
X10549200D01*
X10569520Y8619520D02*
Y8680480D01*
X10630480D01*
Y8619520D01*
X10569520D01*
X9449200Y12599200D02*
Y12700800D01*
X9550800D01*
Y12599200D01*
X9449200D01*
X9469520Y12619520D02*
Y12680480D01*
X9530480D01*
Y12619520D01*
X9469520D01*
X10238740Y10078720D02*
Y10180320D01*
X10340340D01*
Y10078720D01*
X10238740D01*
X10259060Y10099040D02*
Y10160000D01*
X10320020D01*
Y10099040D01*
X10259060D01*
X8978900Y11435080D02*
Y11536680D01*
X9080500D01*
Y11435080D01*
X8978900D01*
X8999220Y11455400D02*
Y11516360D01*
X9060180D01*
Y11455400D01*
X8999220D01*
X10099700Y11089640D02*
Y11191240D01*
X10201300D01*
Y11089640D01*
X10099700D01*
X10120020Y11109960D02*
Y11170920D01*
X10180980D01*
Y11109960D01*
X10120020D01*
X10599200Y10949200D02*
Y11050800D01*
X10700800D01*
Y10949200D01*
X10599200D01*
X10619520Y10969520D02*
Y11030480D01*
X10680480D01*
Y10969520D01*
X10619520D01*
D90*
X13335803Y11525001D02*
G03*
X13335803Y11525001I-50800J0D01*
G01*
X13035799Y11074999D02*
G03*
X13035799Y11074999I-50800J0D01*
G01*
%TF.MD5,A63A18D8D029439803F061C52C281D74*%
M02*
