G04 Layer_Color=0*
%FSLAX45Y45*%
%MOMM*%
%TF.FileFunction,Plated,1,4,PTH,Drill*%
%TF.Part,Single*%
G01*
G75*
%TA.AperFunction,ComponentDrill*%
%ADD74C,3.50000*%
%ADD75C,3.00000*%
%ADD76C,0.90000*%
%ADD77C,0.85000*%
%ADD78C,0.80000*%
%TA.AperFunction,OtherDrill,Pad Free-0 (121.39mm,116.63mm)*%
%ADD79C,2.75000*%
%TA.AperFunction,OtherDrill,Pad Free-0 (72.39mm,58.63mm)*%
%ADD80C,2.75000*%
%TA.AperFunction,OtherDrill,Pad Free-0 (121.39mm,58.718mm)*%
%ADD81C,2.75000*%
%TA.AperFunction,OtherDrill,Pad Free-0 (72.39mm,116.63mm)*%
%ADD82C,2.75000*%
%TA.AperFunction,ComponentDrill*%
%ADD83C,0.90000*%
%ADD84C,0.80000*%
%ADD85C,0.85000*%
%ADD86C,1.20000*%
%ADD87C,1.00000*%
%TA.AperFunction,ViaDrill,NotFilled*%
%ADD88C,0.71120*%
D74*
X12684999Y11525001D02*
D03*
D75*
X13285004D02*
D03*
X12984998Y11074999D02*
D03*
D76*
X11749998Y9146001D02*
D03*
Y9400001D02*
D03*
Y10000001D02*
D03*
Y9746001D02*
D03*
X13106400Y6350000D02*
D03*
X13360400D02*
D03*
X13106400Y6604000D02*
D03*
X13360400D02*
D03*
X13106400Y6858000D02*
D03*
X13360400D02*
D03*
X13106400Y7112000D02*
D03*
X13360400D02*
D03*
X13106400Y7366000D02*
D03*
X13360400D02*
D03*
X13106400Y7620000D02*
D03*
X13360400D02*
D03*
X13106400Y7874000D02*
D03*
X13360400D02*
D03*
X13106400Y8128000D02*
D03*
X13360400D02*
D03*
X13106400Y8382000D02*
D03*
X13360400D02*
D03*
X13106400Y8636000D02*
D03*
X13360400D02*
D03*
X6248400Y6350000D02*
D03*
X6502400D02*
D03*
X6248400Y6604000D02*
D03*
X6502400D02*
D03*
X6248400Y6858000D02*
D03*
X6502400D02*
D03*
X6248400Y7112000D02*
D03*
X6502400D02*
D03*
X6248400Y7366000D02*
D03*
X6502400D02*
D03*
X6248400Y7620000D02*
D03*
X6502400D02*
D03*
X6248400Y7874000D02*
D03*
X6502400D02*
D03*
X6248400Y8128000D02*
D03*
X6502400D02*
D03*
X6248400Y8382000D02*
D03*
X6502400D02*
D03*
X6248400Y8636000D02*
D03*
X6502400D02*
D03*
X7366000Y11150600D02*
D03*
X7112000D02*
D03*
X7366000Y10896600D02*
D03*
X7112000D02*
D03*
X7366000Y10642600D02*
D03*
X7112000D02*
D03*
X7366000Y10388600D02*
D03*
X7112000D02*
D03*
X7366000Y10134600D02*
D03*
X7112000D02*
D03*
X7366000Y9880600D02*
D03*
X7112000D02*
D03*
X7366000Y9626600D02*
D03*
X7112000D02*
D03*
X7366000Y9372600D02*
D03*
X7112000D02*
D03*
X7366000Y9118600D02*
D03*
X7112000D02*
D03*
X7366000Y8864600D02*
D03*
X7112000D02*
D03*
X7366000Y8610600D02*
D03*
X7112000D02*
D03*
X7366000Y8356600D02*
D03*
X7112000D02*
D03*
X7366000Y8102600D02*
D03*
X7112000D02*
D03*
X7366000Y7848600D02*
D03*
X7112000D02*
D03*
X7366000Y7594600D02*
D03*
X7112000D02*
D03*
X7366000Y7340600D02*
D03*
X7112000D02*
D03*
X7366000Y7086600D02*
D03*
X7112000D02*
D03*
X7366000Y6832600D02*
D03*
X7112000D02*
D03*
X7366000Y6578600D02*
D03*
X7112000D02*
D03*
X7366000Y6324600D02*
D03*
X7112000D02*
D03*
D77*
X13099998Y12238000D02*
D03*
Y13762000D02*
D03*
X5950001Y12861996D02*
D03*
Y11337996D02*
D03*
X6300003D02*
D03*
Y12861996D02*
D03*
X6649999Y12862001D02*
D03*
Y11338001D02*
D03*
X7700000Y11387999D02*
D03*
Y12912000D02*
D03*
X10300000D02*
D03*
Y11387999D02*
D03*
X10699999Y12912000D02*
D03*
Y11387999D02*
D03*
X8699998D02*
D03*
Y12912000D02*
D03*
X9849998Y11387999D02*
D03*
Y12912000D02*
D03*
X8250001D02*
D03*
Y11387999D02*
D03*
X9449999Y12912000D02*
D03*
Y11387999D02*
D03*
X13411200Y12192000D02*
D03*
Y13716000D02*
D03*
D78*
X9600001Y10624998D02*
D03*
Y11125002D02*
D03*
D79*
X12139000Y11662999D02*
D03*
D80*
X7239000Y5863001D02*
D03*
D81*
X12139000Y5871799D02*
D03*
D82*
X7239000Y11662999D02*
D03*
D83*
X9296400Y9144000D02*
D03*
Y8890000D02*
D03*
X9550400Y9144000D02*
D03*
Y8890000D02*
D03*
X9804400Y9144000D02*
D03*
Y8890000D02*
D03*
X10058400Y9144000D02*
D03*
Y8890000D02*
D03*
X10312400Y9144000D02*
D03*
Y8890000D02*
D03*
X12770896Y13184302D02*
D03*
X12516896D02*
D03*
X12262896D02*
D03*
X12008896D02*
D03*
X11754896D02*
D03*
X11500896D02*
D03*
X11246896D02*
D03*
X10992896D02*
D03*
X10230896D02*
D03*
X9976896D02*
D03*
X9722896D02*
D03*
X9468896D02*
D03*
X9214896D02*
D03*
X8960896D02*
D03*
X8706896D02*
D03*
X8452896D02*
D03*
X7792496D02*
D03*
X7538496D02*
D03*
X7284496D02*
D03*
X7030496D02*
D03*
X6776496D02*
D03*
X6522496D02*
D03*
X6268496D02*
D03*
X6014496D02*
D03*
X8192002Y9649998D02*
D03*
X8446002D02*
D03*
X8700002D02*
D03*
D84*
X10800004Y9800001D02*
D03*
X10300000D02*
D03*
X9650000Y10249998D02*
D03*
X10150004D02*
D03*
X11374999Y11625001D02*
D03*
X11875003D02*
D03*
X13271500Y14021501D02*
D03*
Y14275500D02*
D03*
X13273003Y15027000D02*
D03*
Y14773000D02*
D03*
D85*
X12611999Y12549998D02*
D03*
X11087999D02*
D03*
X12611999Y12149999D02*
D03*
X11087999D02*
D03*
D86*
X11327002Y10400000D02*
D03*
X12373000D02*
D03*
D87*
X11052002Y11640000D02*
D03*
Y8520000D02*
D03*
D88*
X10950000Y11350000D02*
D03*
X10600000Y8650000D02*
D03*
X9500000Y12650000D02*
D03*
X10289540Y10129520D02*
D03*
X9029700Y11485880D02*
D03*
X10150500Y11140440D02*
D03*
X10650000Y11000000D02*
D03*
%TF.MD5,196433D23A731A3AA6BA9B4009077515*%
M02*
