G04 Layer_Color=16711935*
%FSLAX45Y45*%
%MOMM*%
%TF.FileFunction,Soldermask,Bot*%
%TF.Part,Single*%
G01*
G75*
%TA.AperFunction,ComponentPad*%
%ADD53C,5.15000*%
%ADD54C,4.15000*%
%ADD55C,1.65000*%
%ADD56R,1.65000X1.65000*%
%ADD57C,1.55000*%
%ADD58R,1.50000X1.50000*%
%ADD59C,1.50000*%
%TA.AperFunction,ViaPad*%
%ADD60C,1.67400*%
%TA.AperFunction,ComponentPad*%
%ADD61R,1.65000X1.65000*%
%ADD62R,1.50000X1.50000*%
%ADD63R,2.15000X2.15000*%
%ADD64C,2.15000*%
%ADD65C,1.80000*%
%ADD66C,1.75000*%
%TA.AperFunction,ViaPad*%
%ADD67C,1.42000*%
D53*
X12684999Y11525001D02*
D03*
D54*
X13285004D02*
D03*
X12984998Y11074999D02*
D03*
D55*
X11749998Y9146001D02*
D03*
Y9746001D02*
D03*
X9296400Y8890000D02*
D03*
X9550400Y9144000D02*
D03*
Y8890000D02*
D03*
X9804400Y9144000D02*
D03*
Y8890000D02*
D03*
X10058400Y9144000D02*
D03*
Y8890000D02*
D03*
X10312400Y9144000D02*
D03*
Y8890000D02*
D03*
X12770896Y13184302D02*
D03*
X12516896D02*
D03*
X12262896D02*
D03*
X12008896D02*
D03*
X11754896D02*
D03*
X11500896D02*
D03*
X11246896D02*
D03*
X10230896D02*
D03*
X9976896D02*
D03*
X9722896D02*
D03*
X9468896D02*
D03*
X9214896D02*
D03*
X8960896D02*
D03*
X8706896D02*
D03*
X7792496D02*
D03*
X7538496D02*
D03*
X7284496D02*
D03*
X7030496D02*
D03*
X6776496D02*
D03*
X6522496D02*
D03*
X6268496D02*
D03*
X13360400Y6350000D02*
D03*
X13106400Y6604000D02*
D03*
X13360400D02*
D03*
X13106400Y6858000D02*
D03*
X13360400D02*
D03*
X13106400Y7112000D02*
D03*
X13360400D02*
D03*
X13106400Y7366000D02*
D03*
X13360400D02*
D03*
X13106400Y7620000D02*
D03*
X13360400D02*
D03*
X13106400Y7874000D02*
D03*
X13360400D02*
D03*
X13106400Y8128000D02*
D03*
X13360400D02*
D03*
X13106400Y8382000D02*
D03*
X13360400D02*
D03*
X13106400Y8636000D02*
D03*
X13360400D02*
D03*
X6502400Y6350000D02*
D03*
X6248400Y6604000D02*
D03*
X6502400D02*
D03*
X6248400Y6858000D02*
D03*
X6502400D02*
D03*
X6248400Y7112000D02*
D03*
X6502400D02*
D03*
X6248400Y7366000D02*
D03*
X6502400D02*
D03*
X6248400Y7620000D02*
D03*
X6502400D02*
D03*
X6248400Y7874000D02*
D03*
X6502400D02*
D03*
X6248400Y8128000D02*
D03*
X6502400D02*
D03*
X6248400Y8382000D02*
D03*
X6502400D02*
D03*
X6248400Y8636000D02*
D03*
X6502400D02*
D03*
X7112000Y11150600D02*
D03*
X7366000Y10896600D02*
D03*
X7112000D02*
D03*
X7366000Y10642600D02*
D03*
X7112000D02*
D03*
X7366000Y10388600D02*
D03*
X7112000D02*
D03*
X7366000Y10134600D02*
D03*
X7112000D02*
D03*
X7366000Y9880600D02*
D03*
X7112000D02*
D03*
X7366000Y9626600D02*
D03*
X7112000D02*
D03*
X7366000Y9372600D02*
D03*
X7112000D02*
D03*
X7366000Y9118600D02*
D03*
X7112000D02*
D03*
X7366000Y8864600D02*
D03*
X7112000D02*
D03*
X7366000Y8610600D02*
D03*
X7112000D02*
D03*
X7366000Y8356600D02*
D03*
X7112000D02*
D03*
X7366000Y8102600D02*
D03*
X7112000D02*
D03*
X7366000Y7848600D02*
D03*
X7112000D02*
D03*
X7366000Y7594600D02*
D03*
X7112000D02*
D03*
X7366000Y7340600D02*
D03*
X7112000D02*
D03*
X7366000Y7086600D02*
D03*
X7112000D02*
D03*
X7366000Y6832600D02*
D03*
X7112000D02*
D03*
X7366000Y6578600D02*
D03*
X7112000D02*
D03*
X7366000Y6324600D02*
D03*
X7112000D02*
D03*
X8192002Y9649998D02*
D03*
X8446002D02*
D03*
D56*
X11749998Y9400001D02*
D03*
Y10000001D02*
D03*
X13106400Y6350000D02*
D03*
X6248400D02*
D03*
X7366000Y11150600D02*
D03*
D57*
X13099998Y12238000D02*
D03*
Y13762000D02*
D03*
X5950001Y12861996D02*
D03*
Y11337996D02*
D03*
X6300003D02*
D03*
Y12861996D02*
D03*
X6649999Y12862001D02*
D03*
Y11338001D02*
D03*
X7700000Y11387999D02*
D03*
Y12912000D02*
D03*
X12611999Y12549998D02*
D03*
X11087999D02*
D03*
X12611999Y12149999D02*
D03*
X11087999D02*
D03*
X10300000Y12912000D02*
D03*
Y11387999D02*
D03*
X10699999Y12912000D02*
D03*
Y11387999D02*
D03*
X8699998D02*
D03*
Y12912000D02*
D03*
X9849998Y11387999D02*
D03*
Y12912000D02*
D03*
X8250001D02*
D03*
Y11387999D02*
D03*
X9449999Y12912000D02*
D03*
Y11387999D02*
D03*
X13411200Y12192000D02*
D03*
Y13716000D02*
D03*
D58*
X9600001Y10624998D02*
D03*
D59*
Y11125002D02*
D03*
X10300000Y9800001D02*
D03*
X10150004Y10249998D02*
D03*
X11875003Y11625001D02*
D03*
D60*
X12139000Y11662999D02*
D03*
X7239000Y5863001D02*
D03*
X12139000Y5871799D02*
D03*
X7239000Y11662999D02*
D03*
D61*
X9296400Y9144000D02*
D03*
X10992896Y13184302D02*
D03*
X8452896D02*
D03*
X6014496D02*
D03*
X8700002Y9649998D02*
D03*
D62*
X10800004Y9800001D02*
D03*
X9650000Y10249998D02*
D03*
X11374999Y11625001D02*
D03*
D63*
X11327002Y10400000D02*
D03*
D64*
X12373000D02*
D03*
D65*
X11052002Y11640000D02*
D03*
Y8520000D02*
D03*
D66*
X13271500Y14021501D02*
D03*
Y14275500D02*
D03*
X13273003Y15027000D02*
D03*
Y14773000D02*
D03*
D67*
X10950000Y11350000D02*
D03*
X10600000Y8650000D02*
D03*
X9500000Y12650000D02*
D03*
X10289540Y10129520D02*
D03*
X9029700Y11485880D02*
D03*
X10150500Y11140440D02*
D03*
X10650000Y11000000D02*
D03*
%TF.MD5,F1B5622044710022A6B48B5C4FAA9571*%
M02*
