M48
;Layer_Color=9474304
;FILE_FORMAT=4:4
METRIC,LZ
;TYPE=PLATED
T1F00S00C0.7112
T2F00S00C0.8000
T3F00S00C0.8500
T4F00S00C0.9000
T5F00S00C2.7500
%
T01
X0085852Y00738124
X01072896Y0072644
X0109Y0075
X007874Y009144
X00747776Y0094996
X006477Y0089535
X00678688Y01058926
X0097663Y0102997
X011049Y011557
X012065Y0111887
X012954Y0096393
Y009398
Y009144
X006858Y01392936
X00635Y0154305
T02
X011561Y010922
X012061
X012069Y01016
X012569
X012192Y012196
Y012696
T03
X0080772Y006096
X0085852
Y00762
X0080772
X0102616Y0077724
X0102108Y0069088
Y0065532
X0117348
Y0069088
X0117856Y0077724
X007874Y0098552
X0084328Y0102108
X009398Y0098552
X0102108Y0080772
X0117348
X0084328Y0117348
X0119888Y0136144
Y0139192
Y014224
Y0145288
X0104648
Y014224
Y0139192
Y0136144
X00889Y014224
Y0145796
X007366
Y014224
T04
X012954Y00635
X013208
Y006604
X012954
Y006858
X013208
Y007112
X012954
Y007366
X013208
Y00762
X012954
Y007874
X013208
X0099822Y0077724
Y0075184
Y0072644
Y0070104
Y0067564
Y0065024
X0092202
Y0067564
Y0070104
Y0072644
Y0075184
Y0077724
X0113284Y0061468
X0115824
X007366Y0063246
X007112
Y0065786
X007366
Y0068326
X007112
Y0070866
X007366
Y0073406
X007112
Y0075946
X007366
Y0078486
X007112
X00635Y007874
Y00762
Y007366
Y007112
Y006858
Y006604
Y00635
X006096
Y006604
Y006858
Y007112
Y007366
Y00762
Y007874
Y008128
X00635
Y008382
X006096
Y008636
X00635
X007112Y0086106
Y0083566
Y0081026
X007366
Y0083566
Y0086106
Y0088646
X007112
Y0091186
X007366
Y0093726
X007112
Y0096266
X007366
Y0098806
X007112
Y0101346
X007366
Y0103886
X007112
Y0106426
X007366
Y0108966
X007112
Y0111506
X007366
X006604Y011176
Y010922
Y010668
Y010414
Y01016
Y009906
Y009652
Y009398
X009144Y009144
X009398
X009652
X009906
X01016
Y00889
X009906
X009652
X009398
X009144
X0092202Y0080264
X0099822
X01143Y00889
X011684
X010922Y010668
X010668
X01016
X009906
X009398
X009144
X012954
Y010414
Y01016
Y009906
Y010922
Y011176
Y01143
Y011684
Y008636
Y008382
Y008128
X013208
Y008382
Y008636
X011938Y00889
X012954Y011938
Y012192
Y0127
Y012954
Y013208
Y013462
Y013716
Y01397
Y014224
Y014478
Y014732
Y014986
X011938Y01524
X011684
X010922
X010668
X01016
X009906
X009398
X009144
X008382
X008128
X0094234Y014478
Y014224
Y01397
Y013716
Y013462
Y013208
Y012954
X0101854
Y013208
Y013462
Y013716
Y01397
Y014224
Y014478
X007874Y01524
X00762
X007366
X007112
X006858
X006604
X007112Y014478
Y014224
Y01397
Y013716
Y013462
Y013208
Y012954
Y0127
T05
X012139Y005863
X007239
Y011663
X012139
M30
